<?xml version="1.0" encoding="utf-8"?>
<svg version="1.1" xmlns:xlink="http://www.w3.org/1999/xlink" width="93px" height="98px" xmlns="http://www.w3.org/2000/svg">
  <g transform="matrix(1 0 0 1 -847 -322 )">
    <path d="M 847 322  L 940 322  L 940 420  L 847 420  L 847 322  " fill-rule="nonzero" fill="#cccccc" stroke="none" />
    <path d="M 854 329  L 933 329  L 933 413  L 854 413  L 854 329  " fill-rule="nonzero" fill="#ffffff" stroke="none" />
    <path d="M 902.335 350.65  C 898.429 350.65  895.36 347.581  895.36 343.675  C 895.36 339.769  898.429 336.7  902.335 336.7  C 906.241 336.7  909.31 339.769  909.31 343.675  C 909.31 347.581  906.241 350.65  902.335 350.65  " fill-rule="nonzero" fill="#cccccc" stroke="none" />
    <path d="M 857 411  L 857 367.55  L 875.5 347.8  L 901.4 363.6  L 916.2 359.65  L 931 363.6  L 931 411  L 857 411  " fill-rule="nonzero" fill="#169bd5" stroke="none" />
  </g>
</svg>