<?xml version="1.0" encoding="utf-8"?>
<svg version="1.1" xmlns:xlink="http://www.w3.org/1999/xlink" width="5px" height="6px" xmlns="http://www.w3.org/2000/svg">
  <g transform="matrix(1 0 0 1 -1234 -177 )">
    <path d="M 4.9072265625 0.197916666666629  C 4.96907552083331 0.329861111111086  5 0.486111111111086  5 0.666666666666629  C 5 0.847222222222229  4.96907552083331 1.00347222222223  4.9072265625 1.13541666666663  L 2.7197265625 5.80208333333337  C 2.65787760416663 5.93402777777777  2.58463541666663 6  2.5 6  C 2.41536458333337 6  2.34212239583337 5.93402777777777  2.2802734375 5.80208333333337  L 0.0927734375 1.13541666666663  C 0.0309244791666856 1.00347222222223  0 0.847222222222229  0 0.666666666666629  C 0 0.486111111111086  0.0309244791666856 0.329861111111086  0.0927734375 0.197916666666629  C 0.154622395833314 0.0659722222222285  0.227864583333314 0  0.3125 0  L 4.6875 0  C 4.77213541666669 0  4.84537760416669 0.0659722222222285  4.9072265625 0.197916666666629  Z " fill-rule="nonzero" fill="#cccccc" stroke="none" transform="matrix(1 0 0 1 1234 177 )" />
  </g>
</svg>