<?xml version="1.0" encoding="utf-8"?>
<svg version="1.1" xmlns:xlink="http://www.w3.org/1999/xlink" width="12px" height="12px" viewBox="1972 1208  12 12" xmlns="http://www.w3.org/2000/svg">
  <path d="M 1978 1208  C 1981.36 1208  1984 1210.64  1984 1214  C 1984 1217.36  1981.36 1220  1978 1220  C 1974.64 1220  1972 1217.36  1972 1214  C 1972 1210.64  1974.64 1208  1978 1208  Z " fill-rule="nonzero" fill="#ffffff" stroke="none" />
  <path d="M 1978 1208.5  C 1981.08 1208.5  1983.5 1210.92  1983.5 1214  C 1983.5 1217.08  1981.08 1219.5  1978 1219.5  C 1974.92 1219.5  1972.5 1217.08  1972.5 1214  C 1972.5 1210.92  1974.92 1208.5  1978 1208.5  Z " stroke-width="1" stroke="#797979" fill="none" />
  <path d="M 1978 1217  C 1976.32 1217  1975 1215.68  1975 1214  C 1975 1212.32  1976.32 1211  1978 1211  C 1979.68 1211  1981 1212.32  1981 1214  C 1981 1215.68  1979.68 1217  1978 1217  " fill-rule="nonzero" fill="#797979" stroke="none" />
</svg>