<?xml version="1.0" encoding="utf-8"?>
<svg version="1.1" xmlns:xlink="http://www.w3.org/1999/xlink" width="138px" height="137px" xmlns="http://www.w3.org/2000/svg">
  <g transform="matrix(1 0 0 1 -372 -1874 )">
    <path d="M 137 103.958587902321  C 137.415818363274 101.478282887351  135.528283667041 99.494038875374  133.16852233034 99  L 118.538947105788 99  C 116.179338198603 99.494038875374  114.291651072855 101.478122660928  114.291651072855 103.958587902321  L 114.291651072855 110.903441944237  L 107.212824351298 110.903441944237  C 104.381293662675 110.903441944237  102.493606536926 112.887525729791  102 115.864051974177  L 102 131.241943066991  C 102.493606536926 133.722248081961  104.381141233159 135.706492093937  106.740902569861 135.706492093937  L 133.16852233034 136.202553096931  C 135.528131237525 136.202553096931  137.415818363274 134.218469311377  137 131.738004069985  L 137 103.958587902321  Z M 76.537908557884 133.226347305389  C 76.537908557884 135.210431090943  77.9536739021961 136.698774326347  79.8413610279445 136.698774326347  L 86.9201877495015 136.698774326347  C 88.8077224457338 136.698774326347  90.2236402195611 135.210591317365  90.2236402195611 133.226347305389  L 90.2236402195611 125.785432260479  C 90.2236402195611 123.801348474925  88.8078748752498 122.313005239521  86.9201877495015 122.313005239521  L 79.8413610279445 122.313005239521  C 77.9538263317113 122.313005239521  76.537908557884 123.801188248503  76.537908557884 125.785432260479  L 76.537908557884 133.226347305389  Z M 128.449152086453 73.6990269461074  C 126.56161739022 73.6990269461074  124.673777834955 75.1872099550902  124.673777834955 77.66751497006  L 124.673777834955 83.6200867795662  C 124.673777834955 85.6041705651198  126.561312531188 87.5885748035179  128.449152086453 87.5885748035179  L 134.112061034182 87.5885748035179  C 135.999595730415 87.5885748035179  137.887435285679 85.6044910179643  137.887435285679 83.6200867795662  L 137.887435285679 77.66751497006  C 137.887435285679 75.6834311845064  135.999900589446 73.6990269461074  134.112061034182 73.6990269461074  L 128.449152086453 73.6990269461074  Z M 75 98.0060160928143  C 75.1221432135728 99.9900998783679  76.537908557884 101.478443113772  78.4255956836332 101  L 98.7182322854294 101  C 100.605766981662 101.478443113772  102.021684755489 99.9902601047902  102 98.0060160928143  L 102 76.6753929640721  C 102.021684755489 74.6913091785176  100.605919411178 73.2029659431134  98.7182322854294 73  L 78.4255956836332 73  C 76.5380609874001 73.2029659431134  75.1221432135728 74.6911489520962  75 76.6753929640721  L 75 98.0060160928143  Z M 97 41  L 97 21  L 117 21  L 117 41  L 97 41  Z M 74 49.3921980258236  C 74.1784520802147 57.3291740737279  80.3134352388976 63.2817458832332  87.3921095309386 64  L 124.201856053518 64  C 131.752604556512 63.2817458832332  137.415513504242 56.8329528443117  137 49.3921980258236  L 137 14.1718668132485  C 137.415513504242 6.23489076534416  131.280530345559 0.282318955837936  124.201856053518 1  L 87.3921095309386 1  C 79.8413610279445 0.282318955837936  74.1784520802147 6.73111199476038  74 14.1718668132485  L 74 49.3921980258236  Z M 80 49.3921980258236  L 80 14.1718668132485  C 80.7852045908186 10.2033787892968  83.6167352794411 7.22701277133208  87.3921095309386 8  L 124.201856053518 8  C 127.977230305016 7.22701277133208  130.808760993638 10.2033787892968  130 14.1718668132485  L 130 49.3921980258236  C 130.808760993638 53.3606860497753  127.977230305016 56.33705206774  124.201856053518 57  L 87.3921095309386 57  C 83.6167352794411 56.33705206774  80.7852045908186 53.3606860497753  80 49.3921980258236  Z M 23 114  L 23 94  L 42 94  L 42 114  L 23 114  Z M 63 88.5806968095059  C 62.8521768962078 80.6437207616015  56.717346167041 74.6911489520962  49.6383670159679 74  L 13.7724640562624 74  C 6.69363733470531 74.6911489520962  1.03057595746035 80.6437207616015  1 88.5806968095059  L 1 122.808906016093  C 1.03057595746035 130.249821061003  6.69348490518924 136.698453873503  13.7724640562624 136  L 49.6383670159679 136  C 56.7171937375249 136.698453873503  62.3802551147708 130.745882063997  63 122.808906016093  L 63 88.5806968095059  Z M 57 88.0847960329342  L 57 122.313005239521  C 56.2454243856039 126.281493263473  53.4138936969814 129.257859281437  49.6385194454839 129  L 13.7726164857784 129  C 9.99724223428181 129.257859281437  7.16571154565846 126.281493263473  8 122.313005239521  L 8 88.0847960329342  C 7.16571154565846 84.1163080089824  9.99724223428181 81.1399419910177  13.7726164857784 81  L 49.6385194454839 81  C 53.4138936969814 81.1399419910177  56.2454243856039 84.1163080089824  57 88.0847960329342  Z M 23 41  L 23 21  L 42 21  L 42 41  L 23 41  Z M 64 14.1717065868262  C 63.7958680295659 6.73079154191586  58.1329590818362 0.282158729415675  50.5822105788429 1  L 13.7724640562624 1  C 6.22171555326823 0.282158729415675  0.558806605538469 6.73095176833812  1 14.1717065868262  L 1 49.3920377994013  C 0.558806605538469 57.3290138473056  6.69378976422138 63.281585656811  13.7724640562624 64  L 50.5822105788429 64  C 58.1329590818362 63.281585656811  63.7958680295659 56.8327926178894  64 49.3920377994013  L 64 14.1717065868262  Z M 58 14.1718668132485  L 58 49.3921980258236  C 57.189115518962 53.3606860497753  54.3575848303395 56.33705206774  50.5822105788429 57  L 13.7724640562624 57  C 9.99708980476574 56.33705206774  7.16555911614239 53.3606860497753  8 49.3921980258236  L 8 14.1718668132485  C 7.16555911614239 10.2033787892968  9.99708980476574 7.22701277133208  13.7724640562624 8  L 50.5822105788429 8  C 54.3575848303395 7.22701277133208  57.189115518962 10.2033787892968  58 14.1718668132485  Z " fill-rule="nonzero" fill="#000000" stroke="none" transform="matrix(1 0 0 1 372 1874 )" />
  </g>
</svg>