<?xml version="1.0" encoding="utf-8"?>
<svg version="1.1" xmlns:xlink="http://www.w3.org/1999/xlink" width="25px" height="25px" xmlns="http://www.w3.org/2000/svg">
  <g transform="matrix(1 0 0 1 -1392 -236 )">
    <path d="M 1392 236  L 1417 236  L 1417 261  L 1392 261  L 1392 236  " fill-rule="nonzero" fill="#cccccc" stroke="none" />
    <path d="M 1394 238  L 1415 238  L 1415 259  L 1394 259  L 1394 238  " fill-rule="nonzero" fill="#ffffff" stroke="none" />
    <path d="M 1406.875 243.5  C 1405.825 243.5  1405 242.675  1405 241.625  C 1405 240.575  1405.825 239.75  1406.875 239.75  C 1407.925 239.75  1408.75 240.575  1408.75 241.625  C 1408.75 242.675  1407.925 243.5  1406.875 243.5  " fill-rule="nonzero" fill="#cccccc" stroke="none" />
    <path d="M 1395 259  L 1395 248  L 1400 243  L 1407 247  L 1411 246  L 1415 247  L 1415 259  L 1395 259  " fill-rule="nonzero" fill="#169bd5" stroke="none" />
  </g>
</svg>