<?xml version="1.0" encoding="utf-8"?>
<svg version="1.1" xmlns:xlink="http://www.w3.org/1999/xlink" width="82px" height="68px" xmlns="http://www.w3.org/2000/svg">
  <g>
    <path d="M 0 0  L 82 0  L 82 68  L 0 68  L 0 0  " fill-rule="nonzero" fill="#cccccc" stroke="none" />
    <path d="M 5 5  L 77 5  L 77 63  L 5 63  L 5 5  " fill-rule="nonzero" fill="#ffffff" stroke="none" />
    <path d="M 47.74 20.4  C 44.884 20.4  42.64 18.156  42.64 15.3  C 42.64 12.444  44.884 10.2  47.74 10.2  C 50.596 10.2  52.84 12.444  52.84 15.3  C 52.84 18.156  50.596 20.4  47.74 20.4  " fill-rule="nonzero" fill="#cccccc" stroke="none" />
    <path d="M 7 62  L 7 31.75  L 24.25 18  L 48.4 34.6341463414634  L 62.2 26.25  L 76 34.6341463414634  L 76 62  L 7 62  " fill-rule="nonzero" fill="#169bd5" stroke="none" />
  </g>
</svg>