<?xml version="1.0" encoding="utf-8"?>
<svg version="1.1" xmlns:xlink="http://www.w3.org/1999/xlink" width="10px" height="9px" xmlns="http://www.w3.org/2000/svg">
  <g transform="matrix(1 0 0 1 -175 -115 )">
    <path d="M 9.76251604621309 4.20652173913043  C 9.92083868207103 4.36548913043478  10 4.55095108695652  10 4.76290760869565  C 10 4.97078804347826  9.92083868207103 5.15421195652174  9.76251604621309 5.31317934782609  L 9.2811296534018 5.77173913043478  C 9.11852802738554 5.92663043478261  8.92383397518186 6.00407608695652  8.69704749679076 6.00407608695652  C 8.46598202824133 6.00407608695652  8.27342747111682 5.92663043478261  8.1193838254172 5.77173913043478  L 6.23234916559692 3.98029891304348  L 6.23234916559692 8.28464673913043  C 6.23234916559692 8.49660326086956  6.15211810012837 8.66881793478261  5.99165596919127 8.80129076086957  C 5.83119383825417 8.93376358695652  5.63756953359007 9  5.41078305519897 9  L 4.58921694480103 9  C 4.36243046640993 9  4.16880616174583 8.93376358695652  4.00834403080873 8.80129076086957  C 3.84788189987163 8.66881793478261  3.76765083440308 8.49660326086956  3.76765083440308 8.28464673913043  L 3.76765083440308 3.98029891304348  L 1.8806161745828 5.77173913043478  C 1.72657252888318 5.92663043478261  1.53401797175867 6.00407608695652  1.30295250320924 6.00407608695652  C 1.07188703465982 6.00407608695652  0.879332477535302 5.92663043478261  0.725288831835687 5.77173913043478  L 0.24390243902439 5.31317934782609  C 0.0813008130081301 5.15828804347826  0 4.97486413043478  0 4.76290760869565  C 0 4.546875  0.0813008130081301 4.36141304347826  0.24390243902439 4.20652173913043  L 4.42233632862644 0.226222826086957  C 4.57210098416774 0.0754076086956519  4.76465554129226 0  5 0  C 5.23106546854942 0  5.4257595207531 0.0754076086956519  5.58408215661104 0.226222826086957  L 9.76251604621309 4.20652173913043  Z " fill-rule="nonzero" fill="#ff0000" stroke="none" transform="matrix(1 0 0 1 175 115 )" />
  </g>
</svg>