<?xml version="1.0" encoding="utf-8"?>
<svg version="1.1" xmlns:xlink="http://www.w3.org/1999/xlink" width="37px" height="39px" xmlns="http://www.w3.org/2000/svg">
  <g transform="matrix(1 0 0 1 -27 -191 )">
    <path d="M 27 191  L 64 191  L 64 230  L 27 230  L 27 191  " fill-rule="nonzero" fill="#cccccc" stroke="none" />
    <path d="M 30 194  L 61 194  L 61 227  L 30 227  L 30 194  " fill-rule="nonzero" fill="#ffffff" stroke="none" />
    <path d="M 49.015 202.4  C 47.461 202.4  46.24 201.179  46.24 199.625  C 46.24 198.071  47.461 196.85  49.015 196.85  C 50.569 196.85  51.79 198.071  51.79 199.625  C 51.79 201.179  50.569 202.4  49.015 202.4  " fill-rule="nonzero" fill="#cccccc" stroke="none" />
    <path d="M 31 226  L 31 208.95  L 38.25 201.2  L 48.4 207.4  L 54.2 205.85  L 60 207.4  L 60 226  L 31 226  " fill-rule="nonzero" fill="#169bd5" stroke="none" />
  </g>
</svg>