<?xml version="1.0" encoding="utf-8"?>
<svg version="1.1" xmlns:xlink="http://www.w3.org/1999/xlink" width="26px" height="25px" xmlns="http://www.w3.org/2000/svg">
  <g transform="matrix(1 0 0 1 -197 -191 )">
    <path d="M 197 191  L 223 191  L 223 216  L 197 216  L 197 191  " fill-rule="nonzero" fill="#cccccc" stroke="none" />
    <path d="M 199 193  L 221 193  L 221 214  L 199 214  L 199 193  " fill-rule="nonzero" fill="#ffffff" stroke="none" />
    <path d="M 212.395 198.5  C 211.345 198.5  210.52 197.675  210.52 196.625  C 210.52 195.575  211.345 194.75  212.395 194.75  C 213.445 194.75  214.27 195.575  214.27 196.625  C 214.27 197.675  213.445 198.5  212.395 198.5  " fill-rule="nonzero" fill="#cccccc" stroke="none" />
    <path d="M 200 214  L 200 203  L 205.25 198  L 212.6 202.461538461538  L 216.8 201  L 221 202.461538461538  L 221 214  L 200 214  " fill-rule="nonzero" fill="#169bd5" stroke="none" />
  </g>
</svg>