<?xml version="1.0" encoding="utf-8"?>
<svg version="1.1" xmlns:xlink="http://www.w3.org/1999/xlink" width="67px" height="36px" xmlns="http://www.w3.org/2000/svg">
  <g transform="matrix(1 0 0 1 -1080 -1279 )">
    <path d="M 1094.42712406989 1279.5  C 1094.42712406989 1279.5  1091.10599778039 1280.39224288375  1091.10599778039 1280.39224288375  C 1091.10599778039 1280.39224288375  1080.57552717986 1297  1080.57552717986 1297  C 1080.57552717986 1297  1091.10599778039 1313.60775711625  1091.10599778039 1313.60775711625  C 1091.10599778039 1313.60775711625  1094.42712406989 1314.5  1094.42712406989 1314.5  C 1094.42712406989 1314.5  1141 1314.5  1141 1314.5  C 1144.08 1314.5  1146.5 1312.08  1146.5 1309  C 1146.5 1309  1146.5 1285  1146.5 1285  C 1146.5 1281.92  1144.08 1279.5  1141 1279.5  C 1141 1279.5  1094.42712406989 1279.5  1094.42712406989 1279.5  Z " fill-rule="nonzero" fill="#ffffff" stroke="none" />
    <path d="M 1094.42712406989 1279.5  C 1094.42712406989 1279.5  1091.10599778039 1280.39224288375  1091.10599778039 1280.39224288375  C 1091.10599778039 1280.39224288375  1080.57552717986 1297  1080.57552717986 1297  C 1080.57552717986 1297  1091.10599778039 1313.60775711625  1091.10599778039 1313.60775711625  C 1091.10599778039 1313.60775711625  1094.42712406989 1314.5  1094.42712406989 1314.5  C 1094.42712406989 1314.5  1141 1314.5  1141 1314.5  C 1144.08 1314.5  1146.5 1312.08  1146.5 1309  C 1146.5 1309  1146.5 1285  1146.5 1285  C 1146.5 1281.92  1144.08 1279.5  1141 1279.5  C 1141 1279.5  1094.42712406989 1279.5  1094.42712406989 1279.5  Z " stroke-width="1" stroke="#999999" fill="none" />
  </g>
</svg>