<?xml version="1.0" encoding="utf-8"?>
<svg version="1.1" xmlns:xlink="http://www.w3.org/1999/xlink" width="86px" height="80px" xmlns="http://www.w3.org/2000/svg">
  <g transform="matrix(1 0 0 1 -7 -64 )">
    <path d="M 7 64  L 93 64  L 93 144  L 7 144  L 7 64  " fill-rule="nonzero" fill="#cccccc" stroke="none" />
    <path d="M 13 70  L 87 70  L 87 138  L 13 138  L 13 70  " fill-rule="nonzero" fill="#ffffff" stroke="none" />
    <path d="M 57.72 88  C 54.36 88  51.72 85.36  51.72 82  C 51.72 78.64  54.36 76  57.72 76  C 61.08 76  63.72 78.64  63.72 82  C 63.72 85.36  61.08 88  57.72 88  " fill-rule="nonzero" fill="#cccccc" stroke="none" />
    <path d="M 15 136  L 15 100.8  L 32.5 84.8  L 57 100.279069767442  L 71 94.4  L 85 100.279069767442  L 85 136  L 15 136  " fill-rule="nonzero" fill="#169bd5" stroke="none" />
  </g>
</svg>