<?xml version="1.0" encoding="utf-8"?>
<svg version="1.1" xmlns:xlink="http://www.w3.org/1999/xlink" width="32px" height="20px" xmlns="http://www.w3.org/2000/svg">
  <g transform="matrix(1 0 0 1 -75 -629 )">
    <path d="M 75 629  L 107 629  L 107 649  L 75 649  L 75 629  " fill-rule="nonzero" fill="#cccccc" stroke="none" />
    <path d="M 76 630  L 106 630  L 106 648  L 76 648  L 76 630  " fill-rule="nonzero" fill="#ffffff" stroke="none" />
    <path d="M 93.14 635  C 92.3 635  91.64 634.34  91.64 633.5  C 91.64 632.66  92.3 632  93.14 632  C 93.98 632  94.64 632.66  94.64 633.5  C 94.64 634.34  93.98 635  93.14 635  " fill-rule="nonzero" fill="#cccccc" stroke="none" />
    <path d="M 77 648  L 77 638.65  L 84.25 634.4  L 94.4 641.625  L 100.2 636.95  L 106 641.625  L 106 648  L 77 648  " fill-rule="nonzero" fill="#169bd5" stroke="none" />
  </g>
</svg>