<?xml version="1.0" encoding="utf-8"?>
<svg version="1.1" xmlns:xlink="http://www.w3.org/1999/xlink" width="28px" height="28px" xmlns="http://www.w3.org/2000/svg">
  <g transform="matrix(1 0 0 1 -1849 -891 )">
    <path d="M 1863 892  C 1870.28 892  1876 897.72  1876 905  C 1876 912.28  1870.28 918  1863 918  C 1855.72 918  1850 912.28  1850 905  C 1850 897.72  1855.72 892  1863 892  Z " fill-rule="nonzero" fill="#ffffff" stroke="none" />
    <path d="M 1863 892  C 1870.28 892  1876 897.72  1876 905  C 1876 912.28  1870.28 918  1863 918  C 1855.72 918  1850 912.28  1850 905  C 1850 897.72  1855.72 892  1863 892  Z " stroke-width="2" stroke="#108ee9" fill="none" />
  </g>
</svg>