<?xml version="1.0" encoding="utf-8"?>
<svg version="1.1" xmlns:xlink="http://www.w3.org/1999/xlink" width="28px" height="28px" xmlns="http://www.w3.org/2000/svg">
  <g transform="matrix(1 0 0 1 -2499 -890 )">
    <path d="M 2513 891  C 2520.28 891  2526 896.72  2526 904  C 2526 911.28  2520.28 917  2513 917  C 2505.72 917  2500 911.28  2500 904  C 2500 896.72  2505.72 891  2513 891  Z " fill-rule="nonzero" fill="#ffffff" stroke="none" fill-opacity="0" />
    <path d="M 2513 891  C 2520.28 891  2526 896.72  2526 904  C 2526 911.28  2520.28 917  2513 917  C 2505.72 917  2500 911.28  2500 904  C 2500 896.72  2505.72 891  2513 891  Z " stroke-width="2" stroke="#cccccc" fill="none" />
  </g>
</svg>