<?xml version="1.0" encoding="utf-8"?>
<svg version="1.1" xmlns:xlink="http://www.w3.org/1999/xlink" width="28px" height="28px" xmlns="http://www.w3.org/2000/svg">
  <g transform="matrix(1 0 0 1 -2172 -891 )">
    <path d="M 2186 892  C 2193.28 892  2199 897.72  2199 905  C 2199 912.28  2193.28 918  2186 918  C 2178.72 918  2173 912.28  2173 905  C 2173 897.72  2178.72 892  2186 892  Z " fill-rule="nonzero" fill="#108ee9" stroke="none" />
    <path d="M 2186 892  C 2193.28 892  2199 897.72  2199 905  C 2199 912.28  2193.28 918  2186 918  C 2178.72 918  2173 912.28  2173 905  C 2173 897.72  2178.72 892  2186 892  Z " stroke-width="2" stroke="#108ee9" fill="none" />
  </g>
</svg>