<?xml version="1.0" encoding="utf-8"?>
<svg version="1.1" xmlns:xlink="http://www.w3.org/1999/xlink" width="1160px" height="32px" xmlns="http://www.w3.org/2000/svg">
  <g transform="matrix(1 0 0 1 -1636 -1521 )">
    <path d="M 1637 1525  A 3 3 0 0 1 1640 1522 L 2792 1522  A 3 3 0 0 1 2795 1525 L 2795 1549  A 3 3 0 0 1 2792 1552 L 1640 1552  A 3 3 0 0 1 1637 1549 L 1637 1525  Z " fill-rule="nonzero" fill="#ffffff" stroke="none" />
    <path d="M 1636.5 1525  A 3.5 3.5 0 0 1 1640 1521.5 L 2792 1521.5  A 3.5 3.5 0 0 1 2795.5 1525 L 2795.5 1549  A 3.5 3.5 0 0 1 2792 1552.5 L 1640 1552.5  A 3.5 3.5 0 0 1 1636.5 1549 L 1636.5 1525  Z " stroke-width="1" stroke-dasharray="9,4" stroke="#e9e9e9" fill="none" stroke-dashoffset="0.5" />
  </g>
</svg>