<?xml version="1.0" encoding="utf-8"?>
<svg version="1.1" xmlns:xlink="http://www.w3.org/1999/xlink" width="80px" height="78px" xmlns="http://www.w3.org/2000/svg">
  <g transform="matrix(1 0 0 1 -296 -510 )">
    <path d="M 296 510  L 376 510  L 376 588  L 296 588  L 296 510  " fill-rule="nonzero" fill="#cccccc" stroke="none" />
    <path d="M 301 515  L 371 515  L 371 583  L 301 583  L 301 515  " fill-rule="nonzero" fill="#ffffff" stroke="none" />
    <path d="M 343.45 533.4  C 340.174 533.4  337.6 530.826  337.6 527.55  C 337.6 524.274  340.174 521.7  343.45 521.7  C 346.726 521.7  349.3 524.274  349.3 527.55  C 349.3 530.826  346.726 533.4  343.45 533.4  " fill-rule="nonzero" fill="#cccccc" stroke="none" />
    <path d="M 303 581  L 303 545.8  L 319.5 529.8  L 342.6 543.56  L 355.8 539.4  L 369 543.56  L 369 581  L 303 581  " fill-rule="nonzero" fill="#169bd5" stroke="none" />
  </g>
</svg>