<?xml version="1.0" encoding="utf-8"?>
<svg version="1.1" xmlns:xlink="http://www.w3.org/1999/xlink" width="12px" height="12px" viewBox="363 812  12 12" xmlns="http://www.w3.org/2000/svg">
  <path d="M 369 812  C 372.36 812  375 814.64  375 818  C 375 821.36  372.36 824  369 824  C 365.64 824  363 821.36  363 818  C 363 814.64  365.64 812  369 812  Z " fill-rule="nonzero" fill="#ffffff" stroke="none" />
  <path d="M 369 812.5  C 372.08 812.5  374.5 814.92  374.5 818  C 374.5 821.08  372.08 823.5  369 823.5  C 365.92 823.5  363.5 821.08  363.5 818  C 363.5 814.92  365.92 812.5  369 812.5  Z " stroke-width="1" stroke="#797979" fill="none" />
  <path d="M 369 821  C 367.32 821  366 819.68  366 818  C 366 816.32  367.32 815  369 815  C 370.68 815  372 816.32  372 818  C 372 819.68  370.68 821  369 821  " fill-rule="nonzero" fill="#797979" stroke="none" />
</svg>