<?xml version="1.0" encoding="utf-8"?>
<svg version="1.1" xmlns:xlink="http://www.w3.org/1999/xlink" width="25px" height="18px" xmlns="http://www.w3.org/2000/svg">
  <g transform="matrix(1 0 0 1 -319 -109 )">
    <path d="M 24.749498997996 1.85567010309278  C 24.9164996659987 2.06185567010309  25 2.29896907216495  25 2.56701030927835  C 25 2.83505154639175  24.9164996659987 3.07216494845361  24.749498997996 3.27835051546392  L 13.0761523046092 17.6907216494845  C 12.9091516366065 17.8969072164948  12.7171008684035 18  12.5 18  C 12.2828991315965 18  12.0908483633935 17.8969072164948  11.9238476953908 17.6907216494845  L 0.250501002004008 3.27835051546392  C 0.0835003340013362 3.07216494845361  0 2.83505154639175  0 2.56701030927835  C 0 2.29896907216495  0.0835003340013362 2.06185567010309  0.250501002004008 1.85567010309278  L 1.50300601202405 0.309278350515465  C 1.67000668002672 0.103092783505152  1.86205744822979 0  2.07915831663327 0  C 2.29625918503674 0  2.48830995323981 0.103092783505152  2.65531062124249 0.309278350515465  L 12.5 12.4639175257732  L 22.3446893787575 0.309278350515465  C 22.5116900467602 0.103092783505152  22.7037408149633 0  22.9208416833667 0  C 23.1379425517702 0  23.3299933199733 0.103092783505152  23.496993987976 0.309278350515465  L 24.749498997996 1.85567010309278  Z " fill-rule="nonzero" fill="#333333" stroke="none" transform="matrix(1 0 0 1 319 109 )" />
  </g>
</svg>