<?xml version="1.0" encoding="utf-8"?>
<svg version="1.1" xmlns:xlink="http://www.w3.org/1999/xlink" width="29px" height="41px" xmlns="http://www.w3.org/2000/svg">
  <g transform="matrix(1 0 0 1 -30 -71 )">
    <path d="M 28.5017182130584 2.46492985971944  C 28.8339060710195 2.73881095524382  29 3.05377421509686  29 3.40981963927856  C 29 3.76586506346025  28.8339060710195 4.08082832331329  28.5017182130584 4.35470941883768  L 8.9192439862543 20.5  L 28.5017182130584 36.6452905811623  C 28.8339060710195 36.9191716766867  29 37.2341349365397  29 37.5901803607214  C 29 37.9462257849031  28.8339060710195 38.2611890447562  28.5017182130584 38.5350701402806  L 26.0103092783505 40.5891783567134  C 25.6781214203895 40.8630594522378  25.2961053837343 41  24.8642611683849 41  C 24.4324169530355 41  24.0504009163803 40.8630594522378  23.7182130584192 40.5891783567134  L 0.498281786941581 21.4448897795591  C 0.166093928980527 21.1710086840347  0 20.8560454241817  0 20.5  C 0 20.1439545758183  0.166093928980527 19.8289913159653  0.498281786941581 19.5551102204409  L 23.7182130584192 0.410821643286574  C 24.0504009163803 0.13694054776219  24.4324169530355 0  24.8642611683849 0  C 25.2961053837343 0  25.6781214203895 0.13694054776219  26.0103092783505 0.410821643286574  L 28.5017182130584 2.46492985971944  Z " fill-rule="nonzero" fill="#333333" stroke="none" transform="matrix(1 0 0 1 30 71 )" />
  </g>
</svg>