<?xml version="1.0" encoding="utf-8"?>
<svg version="1.1" xmlns:xlink="http://www.w3.org/1999/xlink" width="10px" height="10px" xmlns="http://www.w3.org/2000/svg">
  <g transform="matrix(1 0 0 1 -204 -268 )">
    <path d="M 209 268  C 211.8 268  214 270.2  214 273  C 214 275.8  211.8 278  209 278  C 206.2 278  204 275.8  204 273  C 204 270.2  206.2 268  209 268  Z " fill-rule="nonzero" fill="#ffffff" stroke="none" />
    <path d="M 209 268.5  C 211.52 268.5  213.5 270.48  213.5 273  C 213.5 275.52  211.52 277.5  209 277.5  C 206.48 277.5  204.5 275.52  204.5 273  C 204.5 270.48  206.48 268.5  209 268.5  Z " stroke-width="1" stroke="#cccccc" fill="none" />
  </g>
</svg>