<?xml version="1.0" encoding="utf-8"?>
<svg version="1.1" xmlns:xlink="http://www.w3.org/1999/xlink" width="164px" height="102px" xmlns="http://www.w3.org/2000/svg">
  <g transform="matrix(1 0 0 1 -358 -2279 )">
    <path d="M 358 2279  L 522 2279  L 522 2381  L 358 2381  L 358 2279  " fill-rule="nonzero" fill="#cccccc" stroke="none" />
    <path d="M 365 2286  L 515 2286  L 515 2374  L 365 2374  L 365 2286  " fill-rule="nonzero" fill="#ffffff" stroke="none" />
    <path d="M 450.93 2309.6  C 446.646 2309.6  443.28 2306.234  443.28 2301.95  C 443.28 2297.666  446.646 2294.3  450.93 2294.3  C 455.214 2294.3  458.58 2297.666  458.58 2301.95  C 458.58 2306.234  455.214 2309.6  450.93 2309.6  " fill-rule="nonzero" fill="#cccccc" stroke="none" />
    <path d="M 368 2372  L 368 2326.35  L 404.25 2305.6  L 455 2341.02682926829  L 484 2318.05  L 513 2341.02682926829  L 513 2372  L 368 2372  " fill-rule="nonzero" fill="#169bd5" stroke="none" />
  </g>
</svg>