<?xml version="1.0" encoding="utf-8"?>
<svg version="1.1" xmlns:xlink="http://www.w3.org/1999/xlink" width="31px" height="26px" xmlns="http://www.w3.org/2000/svg">
  <g transform="matrix(1 0 0 1 -678 -308 )">
    <path d="M 678 308  L 709 308  L 709 334  L 678 334  L 678 308  " fill-rule="nonzero" fill="#cccccc" stroke="none" />
    <path d="M 680 310  L 707 310  L 707 332  L 680 332  L 680 310  " fill-rule="nonzero" fill="#ffffff" stroke="none" />
    <path d="M 696.07 315.8  C 694.978 315.8  694.12 314.942  694.12 313.85  C 694.12 312.758  694.978 311.9  696.07 311.9  C 697.162 311.9  698.02 312.758  698.02 313.85  C 698.02 314.942  697.162 315.8  696.07 315.8  " fill-rule="nonzero" fill="#cccccc" stroke="none" />
    <path d="M 681 332  L 681 320.45  L 687.5 315.2  L 696.6 321.432258064516  L 701.8 318.35  L 707 321.432258064516  L 707 332  L 681 332  " fill-rule="nonzero" fill="#169bd5" stroke="none" />
  </g>
</svg>