<?xml version="1.0" encoding="utf-8"?>
<svg version="1.1" xmlns:xlink="http://www.w3.org/1999/xlink" width="88px" height="88px" xmlns="http://www.w3.org/2000/svg">
  <g transform="matrix(1 0 0 1 -478 -259 )">
    <path d="M 479 263  A 3 3 0 0 1 482 260 L 562 260  A 3 3 0 0 1 565 263 L 565 343  A 3 3 0 0 1 562 346 L 482 346  A 3 3 0 0 1 479 343 L 479 263  Z " fill-rule="nonzero" fill="#f2f2f2" stroke="none" />
    <path d="M 478.5 263  A 3.5 3.5 0 0 1 482 259.5 L 562 259.5  A 3.5 3.5 0 0 1 565.5 263 L 565.5 343  A 3.5 3.5 0 0 1 562 346.5 L 482 346.5  A 3.5 3.5 0 0 1 478.5 343 L 478.5 263  Z " stroke-width="1" stroke-dasharray="3,1" stroke="#d8d8d8" fill="none" stroke-dashoffset="0.5" />
  </g>
</svg>