<?xml version="1.0" encoding="utf-8"?>
<svg version="1.1" xmlns:xlink="http://www.w3.org/1999/xlink" width="38px" height="38px" xmlns="http://www.w3.org/2000/svg">
  <g transform="matrix(1 0 0 1 -1148 -20 )">
    <path d="M 1148 20  L 1186 20  L 1186 58  L 1148 58  L 1148 20  " fill-rule="nonzero" fill="#cccccc" stroke="none" />
    <path d="M 1151 23  L 1183 23  L 1183 55  L 1151 55  L 1151 23  " fill-rule="nonzero" fill="#ffffff" stroke="none" />
    <path d="M 1170.61 31.4  C 1169.014 31.4  1167.76 30.146  1167.76 28.55  C 1167.76 26.954  1169.014 25.7  1170.61 25.7  C 1172.206 25.7  1173.46 26.954  1173.46 28.55  C 1173.46 30.146  1172.206 31.4  1170.61 31.4  " fill-rule="nonzero" fill="#cccccc" stroke="none" />
    <path d="M 1152 54  L 1152 37.5  L 1159.5 30  L 1170 36  L 1176 34.5  L 1182 36  L 1182 54  L 1152 54  " fill-rule="nonzero" fill="#169bd5" stroke="none" />
  </g>
</svg>