<?xml version="1.0" encoding="utf-8"?>
<svg version="1.1" xmlns:xlink="http://www.w3.org/1999/xlink" width="80px" height="76px" xmlns="http://www.w3.org/2000/svg">
  <g transform="matrix(1 0 0 1 1 0 )">
    <path d="M -1 0  L 79 0  L 79 76  L -1 76  L -1 0  " fill-rule="nonzero" fill="#cccccc" stroke="none" />
    <path d="M 4 5  L 74 5  L 74 71  L 4 71  L 4 5  " fill-rule="nonzero" fill="#ffffff" stroke="none" />
    <path d="M 46.3 22.8  C 43.108 22.8  40.6 20.292  40.6 17.1  C 40.6 13.908  43.108 11.4  46.3 11.4  C 49.492 11.4  52 13.908  52 17.1  C 52 20.292  49.492 22.8  46.3 22.8  " fill-rule="nonzero" fill="#cccccc" stroke="none" />
    <path d="M 6 69  L 6 34.9  L 22.5 19.4  L 45.6 33.66  L 58.8 28.7  L 72 33.66  L 72 69  L 6 69  " fill-rule="nonzero" fill="#169bd5" stroke="none" />
  </g>
</svg>