<?xml version="1.0" encoding="utf-8"?>
<svg version="1.1" xmlns:xlink="http://www.w3.org/1999/xlink" width="31px" height="33px" xmlns="http://www.w3.org/2000/svg">
  <g transform="matrix(1 0 0 1 -153 -542 )">
    <path d="M 168.5 542  C 177.18 542  184 549.26  184 558.5  C 184 567.74  177.18 575  168.5 575  C 159.82 575  153 567.74  153 558.5  C 153 549.26  159.82 542  168.5 542  Z " fill-rule="nonzero" fill="#0066ff" stroke="none" />
    <path d="M 168.5 542.5  C 176.9 542.5  183.5 549.54  183.5 558.5  C 183.5 567.46  176.9 574.5  168.5 574.5  C 160.1 574.5  153.5 567.46  153.5 558.5  C 153.5 549.54  160.1 542.5  168.5 542.5  Z " stroke-width="1" stroke="#797979" fill="none" />
  </g>
</svg>