<?xml version="1.0" encoding="utf-8"?>
<svg version="1.1" xmlns:xlink="http://www.w3.org/1999/xlink" width="31px" height="33px" xmlns="http://www.w3.org/2000/svg">
  <g transform="matrix(1 0 0 1 -372 -543 )">
    <path d="M 387.5 543  C 396.18 543  403 550.26  403 559.5  C 403 568.74  396.18 576  387.5 576  C 378.82 576  372 568.74  372 559.5  C 372 550.26  378.82 543  387.5 543  Z " fill-rule="nonzero" fill="#cccccc" stroke="none" />
    <path d="M 387.5 543.5  C 395.9 543.5  402.5 550.54  402.5 559.5  C 402.5 568.46  395.9 575.5  387.5 575.5  C 379.1 575.5  372.5 568.46  372.5 559.5  C 372.5 550.54  379.1 543.5  387.5 543.5  Z " stroke-width="1" stroke="#797979" fill="none" />
  </g>
</svg>