<?xml version="1.0" encoding="utf-8"?>
<svg version="1.1" xmlns:xlink="http://www.w3.org/1999/xlink" width="32px" height="20px" xmlns="http://www.w3.org/2000/svg">
  <g transform="matrix(1 0 0 1 -75 -605 )">
    <path d="M 75 605  L 107 605  L 107 625  L 75 625  L 75 605  " fill-rule="nonzero" fill="#cccccc" stroke="none" />
    <path d="M 76 606  L 106 606  L 106 624  L 76 624  L 76 606  " fill-rule="nonzero" fill="#ffffff" stroke="none" />
    <path d="M 93.14 611  C 92.3 611  91.64 610.34  91.64 609.5  C 91.64 608.66  92.3 608  93.14 608  C 93.98 608  94.64 608.66  94.64 609.5  C 94.64 610.34  93.98 611  93.14 611  " fill-rule="nonzero" fill="#cccccc" stroke="none" />
    <path d="M 77 624  L 77 614.65  L 84.25 610.4  L 94.4 617.625  L 100.2 612.95  L 106 617.625  L 106 624  L 77 624  " fill-rule="nonzero" fill="#169bd5" stroke="none" />
  </g>
</svg>