<?xml version="1.0" encoding="utf-8"?>
<svg version="1.1" xmlns:xlink="http://www.w3.org/1999/xlink" width="43px" height="33px" xmlns="http://www.w3.org/2000/svg">
  <g transform="matrix(1 0 0 1 -1195 -356 )">
    <path d="M 1195 356  L 1238 356  L 1238 389  L 1195 389  L 1195 356  " fill-rule="nonzero" fill="#cccccc" stroke="none" />
    <path d="M 1197 358  L 1236 358  L 1236 387  L 1197 387  L 1197 358  " fill-rule="nonzero" fill="#ffffff" stroke="none" />
    <path d="M 1219.835 365.9  C 1218.449 365.9  1217.36 364.811  1217.36 363.425  C 1217.36 362.039  1218.449 360.95  1219.835 360.95  C 1221.221 360.95  1222.31 362.039  1222.31 363.425  C 1222.31 364.811  1221.221 365.9  1219.835 365.9  " fill-rule="nonzero" fill="#cccccc" stroke="none" />
    <path d="M 1198 386  L 1198 371.15  L 1207.25 364.4  L 1220.2 373.567441860465  L 1227.6 368.45  L 1235 373.567441860465  L 1235 386  L 1198 386  " fill-rule="nonzero" fill="#169bd5" stroke="none" />
  </g>
</svg>