<?xml version="1.0" encoding="utf-8"?>
<svg version="1.1" xmlns:xlink="http://www.w3.org/1999/xlink" width="350px" height="432px" xmlns="http://www.w3.org/2000/svg">
  <g transform="matrix(1 0 0 1 -769 -851 )">
    <path d="M 769 851  L 1119 851  L 1119 1283  L 769 1283  L 769 851  " fill-rule="nonzero" fill="#cccccc" stroke="none" />
    <path d="M 794 876  L 1094 876  L 1094 1258  L 794 1258  L 794 876  " fill-rule="nonzero" fill="#ffffff" stroke="none" />
    <path d="M 977.25 968.3  C 962.55 968.3  951 956.75  951 942.05  C 951 927.35  962.55 915.8  977.25 915.8  C 991.95 915.8  1003.5 927.35  1003.5 942.05  C 1003.5 956.75  991.95 968.3  977.25 968.3  " fill-rule="nonzero" fill="#cccccc" stroke="none" />
    <path d="M 803 1249  L 803 1048.8  L 873.5 957.8  L 972.2 1030.6  L 1028.6 1012.4  L 1085 1030.6  L 1085 1249  L 803 1249  " fill-rule="nonzero" fill="#169bd5" stroke="none" />
  </g>
</svg>