<?xml version="1.0" encoding="utf-8"?>
<svg version="1.1" xmlns:xlink="http://www.w3.org/1999/xlink" width="480px" height="432px" xmlns="http://www.w3.org/2000/svg">
  <g transform="matrix(1 0 0 1 -288 -851 )">
    <path d="M 288 851  L 768 851  L 768 1283  L 288 1283  L 288 851  " fill-rule="nonzero" fill="#cccccc" stroke="none" />
    <path d="M 318 881  L 738 881  L 738 1253  L 318 1253  L 318 881  " fill-rule="nonzero" fill="#ffffff" stroke="none" />
    <path d="M 570 980.6  C 551.856 980.6  537.6 966.344  537.6 948.2  C 537.6 930.056  551.856 915.8  570 915.8  C 588.144 915.8  602.4 930.056  602.4 948.2  C 602.4 966.344  588.144 980.6  570 980.6  " fill-rule="nonzero" fill="#cccccc" stroke="none" />
    <path d="M 329 1242  L 329 1049.5  L 428.5 962  L 567.8 1053  L 647.4 1014.5  L 727 1053  L 727 1242  L 329 1242  " fill-rule="nonzero" fill="#169bd5" stroke="none" />
  </g>
</svg>