<?xml version="1.0" encoding="utf-8"?>
<svg version="1.1" xmlns:xlink="http://www.w3.org/1999/xlink" width="39px" height="44px" xmlns="http://www.w3.org/2000/svg">
  <g transform="matrix(1 0 0 1 -468 -292 )">
    <path d="M 468 292  L 507 292  L 507 336  L 468 336  L 468 292  " fill-rule="nonzero" fill="#cccccc" stroke="none" />
    <path d="M 471 295  L 504 295  L 504 333  L 471 333  L 471 295  " fill-rule="nonzero" fill="#ffffff" stroke="none" />
    <path d="M 491.205 304.45  C 489.567 304.45  488.28 303.163  488.28 301.525  C 488.28 299.887  489.567 298.6  491.205 298.6  C 492.843 298.6  494.13 299.887  494.13 301.525  C 494.13 303.163  492.843 304.45  491.205 304.45  " fill-rule="nonzero" fill="#cccccc" stroke="none" />
    <path d="M 472 332  L 472 312.2  L 479.75 303.2  L 490.6 310.4  L 496.8 308.6  L 503 310.4  L 503 332  L 472 332  " fill-rule="nonzero" fill="#169bd5" stroke="none" />
  </g>
</svg>