<?xml version="1.0" encoding="utf-8"?>
<svg version="1.1" xmlns:xlink="http://www.w3.org/1999/xlink" width="27px" height="28px" xmlns="http://www.w3.org/2000/svg">
  <g transform="matrix(1 0 0 1 -96 -142 )">
    <path d="M 96 142  L 123 142  L 123 170  L 96 170  L 96 142  " fill-rule="nonzero" fill="#cccccc" stroke="none" />
    <path d="M 98 144  L 121 144  L 121 168  L 98 168  L 98 144  " fill-rule="nonzero" fill="#ffffff" stroke="none" />
    <path d="M 112.065 150.25  C 110.931 150.25  110.04 149.359  110.04 148.225  C 110.04 147.091  110.931 146.2  112.065 146.2  C 113.199 146.2  114.09 147.091  114.09 148.225  C 114.09 149.359  113.199 150.25  112.065 150.25  " fill-rule="nonzero" fill="#cccccc" stroke="none" />
    <path d="M 99 168  L 99 155.35  L 104.5 149.6  L 112.2 154.2  L 116.6 153.05  L 121 154.2  L 121 168  L 99 168  " fill-rule="nonzero" fill="#169bd5" stroke="none" />
  </g>
</svg>