<?xml version="1.0" encoding="utf-8"?>
<svg version="1.1" xmlns:xlink="http://www.w3.org/1999/xlink" width="55px" height="58px" xmlns="http://www.w3.org/2000/svg">
  <g transform="matrix(1 0 0 1 -28 -327 )">
    <path d="M 28 327  L 83 327  L 83 385  L 28 385  L 28 327  " fill-rule="nonzero" fill="#cccccc" stroke="none" />
    <path d="M 32 331  L 79 331  L 79 381  L 32 381  L 32 331  " fill-rule="nonzero" fill="#ffffff" stroke="none" />
    <path d="M 60.725 343.95  C 58.415 343.95  56.6 342.135  56.6 339.825  C 56.6 337.515  58.415 335.7  60.725 335.7  C 63.035 335.7  64.85 337.515  64.85 339.825  C 64.85 342.135  63.035 343.95  60.725 343.95  " fill-rule="nonzero" fill="#cccccc" stroke="none" />
    <path d="M 34 380  L 34 354.15  L 45 342.4  L 60.4 351.8  L 69.2 349.45  L 78 351.8  L 78 380  L 34 380  " fill-rule="nonzero" fill="#169bd5" stroke="none" />
  </g>
</svg>