<?xml version="1.0" encoding="utf-8"?>
<svg version="1.1" xmlns:xlink="http://www.w3.org/1999/xlink" width="17px" height="16px" xmlns="http://www.w3.org/2000/svg">
  <g transform="matrix(1 0 0 1 -1695 -635 )">
    <path d="M 5.29282407407408 14.1136363636364  C 5.5420524691358 13.8257575757576  5.66666666666667 13.4848484848485  5.66666666666667 13.0909090909091  C 5.66666666666667 12.6969696969697  5.5420524691358 12.3560606060606  5.29282407407408 12.0681818181819  C 5.04359567901235 11.7803030303031  4.74845679012346 11.6363636363636  4.40740740740741 11.6363636363636  C 4.06635802469136 11.6363636363636  3.77121913580247 11.7803030303031  3.52199074074074 12.0681818181819  C 3.27276234567901 12.3560606060606  3.14814814814815 12.6969696969697  3.14814814814815 13.0909090909091  C 3.14814814814815 13.4848484848485  3.27276234567901 13.8257575757576  3.52199074074074 14.1136363636364  C 3.77121913580247 14.4015151515152  4.06635802469136 14.5454545454545  4.40740740740741 14.5454545454545  C 4.74845679012346 14.5454545454545  5.04359567901235 14.4015151515152  5.29282407407408 14.1136363636364  Z M 1.88888888888889 6.93181818181811  L 1.88888888888889 7.27272727272736  L 5.66666666666667 7.27272727272736  L 5.66666666666667 4.36363636363642  L 4.11226851851852 4.36363636363642  C 4.02700617283951 4.36363636363642  3.95486111111111 4.39772727272736  3.89583333333333 4.46590909090906  L 1.97743055555556 6.68181818181811  C 1.91840277777778 6.75  1.88888888888889 6.83333333333337  1.88888888888889 6.93181818181811  Z M 14.1076388888889 14.1136363636364  C 14.3568672839506 13.8257575757576  14.4814814814815 13.4848484848485  14.4814814814815 13.0909090909091  C 14.4814814814815 12.6969696969697  14.3568672839506 12.3560606060606  14.1076388888889 12.0681818181819  C 13.8584104938272 11.7803030303031  13.5632716049383 11.6363636363636  13.2222222222222 11.6363636363636  C 12.8811728395062 11.6363636363636  12.5860339506173 11.7803030303031  12.3368055555556 12.0681818181819  C 12.0875771604938 12.3560606060606  11.962962962963 12.6969696969697  11.962962962963 13.0909090909091  C 11.962962962963 13.4848484848485  12.0875771604938 13.8257575757576  12.3368055555556 14.1136363636364  C 12.5860339506173 14.4015151515152  12.8811728395062 14.5454545454545  13.2222222222222 14.5454545454545  C 13.5632716049383 14.5454545454545  13.8584104938272 14.4015151515152  14.1076388888889 14.1136363636364  Z M 16.8130787037037 0.215909090909056  C 16.9376929012346 0.359848484848523  17 0.530303030303051  17 0.72727272727264  L 17 12.3636363636364  C 17 12.4772727272726  16.9868827160494 12.5776515151515  16.9606481481482 12.6647727272726  C 16.9344135802469 12.751893939394  16.8901427469136 12.8219696969697  16.8278356481482 12.875  C 16.7655285493827 12.9280303030303  16.7114197530864 12.9715909090909  16.6655092592593 13.0056818181819  C 16.6195987654321 13.0397727272726  16.5425347222222 13.0625  16.4343171296296 13.0738636363636  C 16.326099537037 13.0852272727274  16.2523148148148 13.0928030303031  16.212962962963 13.0965909090909  C 16.1736111111111 13.1003787878788  16.0899884259259 13.1003787878788  15.9620949074074 13.0965909090909  C 15.8342013888889 13.0928030303031  15.7604166666667 13.0909090909091  15.7407407407407 13.0909090909091  C 15.7407407407407 13.8939393939394  15.4947916666667 14.5795454545455  15.0028935185185 15.1477272727274  C 14.5109953703704 15.7159090909091  13.9174382716049 16  13.2222222222222 16  C 12.5270061728395 16  11.9334490740741 15.7159090909091  11.4415509259259 15.1477272727274  C 10.9496527777778 14.5795454545455  10.7037037037037 13.8939393939394  10.7037037037037 13.0909090909091  L 6.92592592592592 13.0909090909091  C 6.92592592592592 13.8939393939394  6.67997685185185 14.5795454545455  6.1880787037037 15.1477272727274  C 5.69618055555556 15.7159090909091  5.10262345679013 16  4.40740740740741 16  C 3.71219135802469 16  3.11863425925926 15.7159090909091  2.62673611111111 15.1477272727274  C 2.13483796296296 14.5795454545455  1.88888888888889 13.8939393939394  1.88888888888889 13.0909090909091  L 1.25925925925926 13.0909090909091  C 1.23958333333333 13.0909090909091  1.16579861111111 13.0928030303031  1.03790509259259 13.0965909090909  C 0.91001157407407 13.1003787878788  0.82638888888889 13.1003787878788  0.787037037037035 13.0965909090909  C 0.747685185185184 13.0928030303031  0.673900462962965 13.0852272727274  0.565682870370373 13.0738636363636  C 0.457465277777776 13.0625  0.380401234567902 13.0397727272726  0.334490740740741 13.0056818181819  C 0.288580246913576 12.9715909090909  0.234471450617282 12.9280303030303  0.172164351851851 12.875  C 0.109857253086424 12.8219696969697  0.0655864197530863 12.751893939394  0.039351851851851 12.6647727272726  C 0.0131172839506197 12.5776515151515  0 12.4772727272726  0 12.3636363636364  C 0 12.1666666666666  0.0623070987654313 11.9962121212121  0.186921296296298 11.8522727272726  C 0.311535493827161 11.7083333333334  0.459104938271604 11.6363636363636  0.629629629629627 11.6363636363636  L 0.629629629629627 8  C 0.629629629629627 7.93939393939399  0.627989969135804 7.80681818181811  0.624710648148149 7.60227272727264  C 0.621431327160494 7.39772727272736  0.621431327160494 7.25378787878789  0.624710648148149 7.17045454545453  C 0.627989969135804 7.08712121212116  0.636188271604937 6.95643939393937  0.649305555555557 6.77840909090906  C 0.662422839506177 6.60037878787884  0.68373842592593 6.46022727272736  0.713252314814816 6.35795454545453  C 0.742766203703702 6.25568181818189  0.788676697530867 6.14015151515148  0.850983796296298 6.01136363636358  C 0.913290895061725 5.88257575757569  0.987075617283949 5.76893939393937  1.07233796296296 5.67045454545453  L 3.02025462962963 3.42045454545453  C 3.14486882716049 3.27651515151516  3.31047453703704 3.15530303030305  3.51707175925926 3.05681818181811  C 3.72366898148148 2.95833333333337  3.91550925925926 2.90909090909094  4.09259259259259 2.90909090909094  L 5.66666666666667 2.90909090909094  L 5.66666666666667 0.72727272727264  C 5.66666666666667 0.530303030303051  5.7289737654321 0.359848484848523  5.85358796296297 0.215909090909056  C 5.97820216049383 0.0719696969696854  6.12577160493827 0  6.2962962962963 0  L 16.3703703703704 0  C 16.5408950617284 0  16.6884645061728 0.0719696969696854  16.8130787037037 0.215909090909056  Z " fill-rule="nonzero" fill="#ffffff" stroke="none" transform="matrix(1 0 0 1 1695 635 )" />
  </g>
</svg>