<?xml version="1.0" encoding="utf-8"?>
<svg version="1.1" xmlns:xlink="http://www.w3.org/1999/xlink" width="35px" height="36px" xmlns="http://www.w3.org/2000/svg">
  <g transform="matrix(1 0 0 1 -2560 -80 )">
    <path d="M 2560 80  L 2595 80  L 2595 116  L 2560 116  L 2560 80  " fill-rule="nonzero" fill="#cccccc" stroke="none" />
    <path d="M 2562 82  L 2593 82  L 2593 114  L 2562 114  L 2562 82  " fill-rule="nonzero" fill="#ffffff" stroke="none" />
    <path d="M 2580.825 90.65  C 2579.355 90.65  2578.2 89.495  2578.2 88.025  C 2578.2 86.555  2579.355 85.4  2580.825 85.4  C 2582.295 85.4  2583.45 86.555  2583.45 88.025  C 2583.45 89.495  2582.295 90.65  2580.825 90.65  " fill-rule="nonzero" fill="#cccccc" stroke="none" />
    <path d="M 2563 113  L 2563 96.5  L 2570.25 89  L 2580.4 95  L 2586.2 93.5  L 2592 95  L 2592 113  L 2563 113  " fill-rule="nonzero" fill="#169bd5" stroke="none" />
  </g>
</svg>