<?xml version="1.0" encoding="utf-8"?>
<svg version="1.1" xmlns:xlink="http://www.w3.org/1999/xlink" width="262px" height="312px" xmlns="http://www.w3.org/2000/svg">
  <g transform="matrix(1 0 0 1 -765 -715 )">
    <path d="M 765 715  L 1027 715  L 1027 1027  L 765 1027  L 765 715  " fill-rule="nonzero" fill="#cccccc" stroke="none" />
    <path d="M 783 733  L 1009 733  L 1009 1009  L 783 1009  L 783 733  " fill-rule="nonzero" fill="#ffffff" stroke="none" />
    <path d="M 920.89 801.1  C 909.886 801.1  901.24 792.454  901.24 781.45  C 901.24 770.446  909.886 761.8  920.89 761.8  C 931.894 761.8  940.54 770.446  940.54 781.45  C 940.54 792.454  931.894 801.1  920.89 801.1  " fill-rule="nonzero" fill="#cccccc" stroke="none" />
    <path d="M 790 1003  L 790 858.35  L 843.25 792.6  L 917.8 845.2  L 960.4 832.05  L 1003 845.2  L 1003 1003  L 790 1003  " fill-rule="nonzero" fill="#169bd5" stroke="none" />
  </g>
</svg>