<?xml version="1.0" encoding="utf-8"?>
<svg version="1.1" xmlns:xlink="http://www.w3.org/1999/xlink" width="6px" height="6px" xmlns="http://www.w3.org/2000/svg">
  <g transform="matrix(1 0 0 1 -990 -182 )">
    <path d="M 5.888671875 0.197916666666629  C 5.96289062499998 0.329861111111086  6 0.486111111111086  6 0.666666666666629  C 6 0.847222222222229  5.96289062499998 1.00347222222223  5.888671875 1.13541666666663  L 3.263671875 5.80208333333337  C 3.18945312499995 5.93402777777777  3.10156249999995 6  3 6  C 2.89843750000005 6  2.81054687500005 5.93402777777777  2.736328125 5.80208333333337  L 0.111328125 1.13541666666663  C 0.0371093750000227 1.00347222222223  0 0.847222222222229  0 0.666666666666629  C 0 0.486111111111086  0.0371093750000227 0.329861111111086  0.111328125 0.197916666666629  C 0.185546874999977 0.0659722222222285  0.273437499999977 0  0.375 0  L 5.625 0  C 5.72656250000002 0  5.81445312500002 0.0659722222222285  5.888671875 0.197916666666629  Z " fill-rule="nonzero" fill="#cccccc" stroke="none" transform="matrix(1 0 0 1 990 182 )" />
  </g>
</svg>