<?xml version="1.0" encoding="utf-8"?>
<svg version="1.1" xmlns:xlink="http://www.w3.org/1999/xlink" width="12px" height="12px" viewBox="0 225  12 12" xmlns="http://www.w3.org/2000/svg">
  <path d="M 6 225  C 9.36 225  12 227.64  12 231  C 12 234.36  9.36 237  6 237  C 2.64 237  0 234.36  0 231  C 0 227.64  2.64 225  6 225  Z " fill-rule="nonzero" fill="#ffffff" stroke="none" />
  <path d="M 6 225.5  C 9.08 225.5  11.5 227.92  11.5 231  C 11.5 234.08  9.08 236.5  6 236.5  C 2.92 236.5  0.5 234.08  0.5 231  C 0.5 227.92  2.92 225.5  6 225.5  Z " stroke-width="1" stroke="#797979" fill="none" />
  <path d="M 6 234  C 4.32 234  3 232.68  3 231  C 3 229.32  4.32 228  6 228  C 7.68 228  9 229.32  9 231  C 9 232.68  7.68 234  6 234  " fill-rule="nonzero" fill="#797979" stroke="none" />
</svg>