<?xml version="1.0" encoding="utf-8"?>
<svg version="1.1" xmlns:xlink="http://www.w3.org/1999/xlink" width="12px" height="12px" viewBox="244 225  12 12" xmlns="http://www.w3.org/2000/svg">
  <path d="M 250 225  C 253.36 225  256 227.64  256 231  C 256 234.36  253.36 237  250 237  C 246.64 237  244 234.36  244 231  C 244 227.64  246.64 225  250 225  Z " fill-rule="nonzero" fill="#ffffff" stroke="none" />
  <path d="M 250 225.5  C 253.08 225.5  255.5 227.92  255.5 231  C 255.5 234.08  253.08 236.5  250 236.5  C 246.92 236.5  244.5 234.08  244.5 231  C 244.5 227.92  246.92 225.5  250 225.5  Z " stroke-width="1" stroke="#797979" fill="none" />
  <path d="M 250 234  C 248.32 234  247 232.68  247 231  C 247 229.32  248.32 228  250 228  C 251.68 228  253 229.32  253 231  C 253 232.68  251.68 234  250 234  " fill-rule="nonzero" fill="#797979" stroke="none" />
</svg>