<?xml version="1.0" encoding="utf-8"?>
<svg version="1.1" xmlns:xlink="http://www.w3.org/1999/xlink" width="12px" height="12px" viewBox="234 118  12 12" xmlns="http://www.w3.org/2000/svg">
  <path d="M 240 118  C 243.36 118  246 120.64  246 124  C 246 127.36  243.36 130  240 130  C 236.64 130  234 127.36  234 124  C 234 120.64  236.64 118  240 118  Z " fill-rule="nonzero" fill="#ffffff" stroke="none" />
  <path d="M 240 118.5  C 243.08 118.5  245.5 120.92  245.5 124  C 245.5 127.08  243.08 129.5  240 129.5  C 236.92 129.5  234.5 127.08  234.5 124  C 234.5 120.92  236.92 118.5  240 118.5  Z " stroke-width="1" stroke="#797979" fill="none" />
  <path d="M 240 127  C 238.32 127  237 125.68  237 124  C 237 122.32  238.32 121  240 121  C 241.68 121  243 122.32  243 124  C 243 125.68  241.68 127  240 127  " fill-rule="nonzero" fill="#797979" stroke="none" />
</svg>