<?xml version="1.0" encoding="utf-8"?>
<svg version="1.1" xmlns:xlink="http://www.w3.org/1999/xlink" width="12px" height="12px" viewBox="0 304  12 12" xmlns="http://www.w3.org/2000/svg">
  <path d="M 6 304  C 9.36 304  12 306.64  12 310  C 12 313.36  9.36 316  6 316  C 2.64 316  0 313.36  0 310  C 0 306.64  2.64 304  6 304  Z " fill-rule="nonzero" fill="#ffffff" stroke="none" />
  <path d="M 6 304.5  C 9.08 304.5  11.5 306.92  11.5 310  C 11.5 313.08  9.08 315.5  6 315.5  C 2.92 315.5  0.5 313.08  0.5 310  C 0.5 306.92  2.92 304.5  6 304.5  Z " stroke-width="1" stroke="#797979" fill="none" />
  <path d="M 6 313  C 4.32 313  3 311.68  3 310  C 3 308.32  4.32 307  6 307  C 7.68 307  9 308.32  9 310  C 9 311.68  7.68 313  6 313  " fill-rule="nonzero" fill="#797979" stroke="none" />
</svg>