<?xml version="1.0" encoding="utf-8"?>
<svg version="1.1" xmlns:xlink="http://www.w3.org/1999/xlink" width="12px" height="12px" viewBox="486 118  12 12" xmlns="http://www.w3.org/2000/svg">
  <path d="M 492 118  C 495.36 118  498 120.64  498 124  C 498 127.36  495.36 130  492 130  C 488.64 130  486 127.36  486 124  C 486 120.64  488.64 118  492 118  Z " fill-rule="nonzero" fill="#ffffff" stroke="none" />
  <path d="M 492 118.5  C 495.08 118.5  497.5 120.92  497.5 124  C 497.5 127.08  495.08 129.5  492 129.5  C 488.92 129.5  486.5 127.08  486.5 124  C 486.5 120.92  488.92 118.5  492 118.5  Z " stroke-width="1" stroke="#797979" fill="none" />
  <path d="M 492 127  C 490.32 127  489 125.68  489 124  C 489 122.32  490.32 121  492 121  C 493.68 121  495 122.32  495 124  C 495 125.68  493.68 127  492 127  " fill-rule="nonzero" fill="#797979" stroke="none" />
</svg>