<?xml version="1.0" encoding="utf-8"?>
<svg version="1.1" xmlns:xlink="http://www.w3.org/1999/xlink" width="12px" height="12px" viewBox="597 305  12 12" xmlns="http://www.w3.org/2000/svg">
  <path d="M 603 305  C 606.36 305  609 307.64  609 311  C 609 314.36  606.36 317  603 317  C 599.64 317  597 314.36  597 311  C 597 307.64  599.64 305  603 305  Z " fill-rule="nonzero" fill="#ffffff" stroke="none" />
  <path d="M 603 305.5  C 606.08 305.5  608.5 307.92  608.5 311  C 608.5 314.08  606.08 316.5  603 316.5  C 599.92 316.5  597.5 314.08  597.5 311  C 597.5 307.92  599.92 305.5  603 305.5  Z " stroke-width="1" stroke="#797979" fill="none" />
  <path d="M 603 314  C 601.32 314  600 312.68  600 311  C 600 309.32  601.32 308  603 308  C 604.68 308  606 309.32  606 311  C 606 312.68  604.68 314  603 314  " fill-rule="nonzero" fill="#797979" stroke="none" />
</svg>