<?xml version="1.0" encoding="utf-8"?>
<svg version="1.1" xmlns:xlink="http://www.w3.org/1999/xlink" width="12px" height="12px" viewBox="193 306  12 12" xmlns="http://www.w3.org/2000/svg">
  <path d="M 199 306  C 202.36 306  205 308.64  205 312  C 205 315.36  202.36 318  199 318  C 195.64 318  193 315.36  193 312  C 193 308.64  195.64 306  199 306  Z " fill-rule="nonzero" fill="#ffffff" stroke="none" />
  <path d="M 199 306.5  C 202.08 306.5  204.5 308.92  204.5 312  C 204.5 315.08  202.08 317.5  199 317.5  C 195.92 317.5  193.5 315.08  193.5 312  C 193.5 308.92  195.92 306.5  199 306.5  Z " stroke-width="1" stroke="#797979" fill="none" />
  <path d="M 199 315  C 197.32 315  196 313.68  196 312  C 196 310.32  197.32 309  199 309  C 200.68 309  202 310.32  202 312  C 202 313.68  200.68 315  199 315  " fill-rule="nonzero" fill="#797979" stroke="none" />
</svg>