<?xml version="1.0" encoding="utf-8"?>
<svg version="1.1" xmlns:xlink="http://www.w3.org/1999/xlink" width="43px" height="50px" xmlns="http://www.w3.org/2000/svg">
  <g transform="matrix(1 0 0 1 -96 -1066 )">
    <path d="M 41.8802083333333 15  L 28 15  L 28 1.11607142857143  C 29.0772569444444 1.37648809523809  29.4131944444444 1.63690476190476  29.6744791666667 1.89732142857143  L 41.0963541666667 13.28125  C 41.3576388888889 13.5416666666667  41.6189236111111 13.8764880952381  41.8802083333333 15  Z M 25 0  L 25 15.1785714285714  C 25.0833333333333 15.922619047619  25.3446180555556 16.5550595238095  25.8671875 17.0758928571429  C 26.3897569444444 17.5967261904762  27.0243055555556 17.8571428571429  27.7708333333333 18  L 43 18  L 43 47.3214285714286  C 43 48.0654761904762  42.7387152777778 48.6979166666667  42.2161458333333 49.21875  C 41.6935763888889 49.7395833333333  41.0590277777778 50  40.3125 50  L 2.6875 50  C 1.94097222222222 50  1.30642361111111 49.7395833333333  0.783854166666667 49.21875  C 0.261284722222222 48.6979166666667  0 48.0654761904762  0 47.3214285714286  L 0 2.67857142857143  C 0 1.93452380952381  0.261284722222222 1.30208333333333  0.783854166666667 0.78125  C 1.30642361111111 0.260416666666669  1.94097222222222 0  2.6875 0  L 25 0  Z " fill-rule="nonzero" fill="#333333" stroke="none" transform="matrix(1 0 0 1 96 1066 )" />
  </g>
</svg>