<?xml version="1.0" encoding="utf-8"?>
<svg version="1.1" xmlns:xlink="http://www.w3.org/1999/xlink" width="30px" height="30px" xmlns="http://www.w3.org/2000/svg">
  <g transform="matrix(1 0 0 1 -552 -5 )">
    <path d="M 567 5  C 575.4 5  582 11.6  582 20  C 582 28.4  575.4 35  567 35  C 558.6 35  552 28.4  552 20  C 552 11.6  558.6 5  567 5  Z " fill-rule="nonzero" fill="#ffffff" stroke="none" />
    <path d="M 567 5.5  C 575.12 5.5  581.5 11.88  581.5 20  C 581.5 28.12  575.12 34.5  567 34.5  C 558.88 34.5  552.5 28.12  552.5 20  C 552.5 11.88  558.88 5.5  567 5.5  Z " stroke-width="1" stroke="#797979" fill="none" />
  </g>
</svg>