<?xml version="1.0" encoding="utf-8"?>
<svg version="1.1" xmlns:xlink="http://www.w3.org/1999/xlink" width="300px" height="170px" xmlns="http://www.w3.org/2000/svg">
  <g transform="matrix(1 0 0 1 -150 -869 )">
    <path d="M 150 869  L 450 869  L 450 1039  L 150 1039  L 150 869  " fill-rule="nonzero" fill="#cccccc" stroke="none" />
    <path d="M 162 881  L 438 881  L 438 1027  L 162 1027  L 162 881  " fill-rule="nonzero" fill="#ffffff" stroke="none" />
    <path d="M 318.75 920  C 311.61 920  306 914.39  306 907.25  C 306 900.11  311.61 894.5  318.75 894.5  C 325.89 894.5  331.5 900.11  331.5 907.25  C 331.5 914.39  325.89 920  318.75 920  " fill-rule="nonzero" fill="#cccccc" stroke="none" />
    <path d="M 167 1023  L 167 947.65  L 233.75 913.4  L 327.2 976.42  L 380.6 933.95  L 434 976.42  L 434 1023  L 167 1023  " fill-rule="nonzero" fill="#169bd5" stroke="none" />
  </g>
</svg>