<?xml version="1.0" encoding="utf-8"?>
<svg version="1.1" xmlns:xlink="http://www.w3.org/1999/xlink" width="12px" height="12px" viewBox="631 473  12 12" xmlns="http://www.w3.org/2000/svg">
  <path d="M 637 473  C 640.36 473  643 475.64  643 479  C 643 482.36  640.36 485  637 485  C 633.64 485  631 482.36  631 479  C 631 475.64  633.64 473  637 473  Z " fill-rule="nonzero" fill="#ffffff" stroke="none" />
  <path d="M 637 473.5  C 640.08 473.5  642.5 475.92  642.5 479  C 642.5 482.08  640.08 484.5  637 484.5  C 633.92 484.5  631.5 482.08  631.5 479  C 631.5 475.92  633.92 473.5  637 473.5  Z " stroke-width="1" stroke="#797979" fill="none" />
  <path d="M 637 482  C 635.32 482  634 480.68  634 479  C 634 477.32  635.32 476  637 476  C 638.68 476  640 477.32  640 479  C 640 480.68  638.68 482  637 482  " fill-rule="nonzero" fill="#797979" stroke="none" />
</svg>