<?xml version="1.0" encoding="utf-8"?>
<svg version="1.1" xmlns:xlink="http://www.w3.org/1999/xlink" width="12px" height="12px" viewBox="707 473  12 12" xmlns="http://www.w3.org/2000/svg">
  <path d="M 713 473  C 716.36 473  719 475.64  719 479  C 719 482.36  716.36 485  713 485  C 709.64 485  707 482.36  707 479  C 707 475.64  709.64 473  713 473  Z " fill-rule="nonzero" fill="#ffffff" stroke="none" />
  <path d="M 713 473.5  C 716.08 473.5  718.5 475.92  718.5 479  C 718.5 482.08  716.08 484.5  713 484.5  C 709.92 484.5  707.5 482.08  707.5 479  C 707.5 475.92  709.92 473.5  713 473.5  Z " stroke-width="1" stroke="#797979" fill="none" />
  <path d="M 713 482  C 711.32 482  710 480.68  710 479  C 710 477.32  711.32 476  713 476  C 714.68 476  716 477.32  716 479  C 716 480.68  714.68 482  713 482  " fill-rule="nonzero" fill="#797979" stroke="none" />
</svg>