<?xml version="1.0" encoding="utf-8"?>
<svg version="1.1" xmlns:xlink="http://www.w3.org/1999/xlink" width="12px" height="12px" viewBox="699 438  12 12" xmlns="http://www.w3.org/2000/svg">
  <path d="M 705 438  C 708.36 438  711 440.64  711 444  C 711 447.36  708.36 450  705 450  C 701.64 450  699 447.36  699 444  C 699 440.64  701.64 438  705 438  Z " fill-rule="nonzero" fill="#ffffff" stroke="none" />
  <path d="M 705 438.5  C 708.08 438.5  710.5 440.92  710.5 444  C 710.5 447.08  708.08 449.5  705 449.5  C 701.92 449.5  699.5 447.08  699.5 444  C 699.5 440.92  701.92 438.5  705 438.5  Z " stroke-width="1" stroke="#797979" fill="none" />
  <path d="M 705 447  C 703.32 447  702 445.68  702 444  C 702 442.32  703.32 441  705 441  C 706.68 441  708 442.32  708 444  C 708 445.68  706.68 447  705 447  " fill-rule="nonzero" fill="#797979" stroke="none" />
</svg>