<?xml version="1.0" encoding="utf-8"?>
<svg version="1.1" xmlns:xlink="http://www.w3.org/1999/xlink" width="12px" height="12px" viewBox="769 438  12 12" xmlns="http://www.w3.org/2000/svg">
  <path d="M 775 438  C 778.36 438  781 440.64  781 444  C 781 447.36  778.36 450  775 450  C 771.64 450  769 447.36  769 444  C 769 440.64  771.64 438  775 438  Z " fill-rule="nonzero" fill="#ffffff" stroke="none" />
  <path d="M 775 438.5  C 778.08 438.5  780.5 440.92  780.5 444  C 780.5 447.08  778.08 449.5  775 449.5  C 771.92 449.5  769.5 447.08  769.5 444  C 769.5 440.92  771.92 438.5  775 438.5  Z " stroke-width="1" stroke="#797979" fill="none" />
  <path d="M 775 447  C 773.32 447  772 445.68  772 444  C 772 442.32  773.32 441  775 441  C 776.68 441  778 442.32  778 444  C 778 445.68  776.68 447  775 447  " fill-rule="nonzero" fill="#797979" stroke="none" />
</svg>