<?xml version="1.0" encoding="utf-8"?>
<svg version="1.1" xmlns:xlink="http://www.w3.org/1999/xlink" width="12px" height="12px" viewBox="555 438  12 12" xmlns="http://www.w3.org/2000/svg">
  <path d="M 561 438  C 564.36 438  567 440.64  567 444  C 567 447.36  564.36 450  561 450  C 557.64 450  555 447.36  555 444  C 555 440.64  557.64 438  561 438  Z " fill-rule="nonzero" fill="#ffffff" stroke="none" />
  <path d="M 561 438.5  C 564.08 438.5  566.5 440.92  566.5 444  C 566.5 447.08  564.08 449.5  561 449.5  C 557.92 449.5  555.5 447.08  555.5 444  C 555.5 440.92  557.92 438.5  561 438.5  Z " stroke-width="1" stroke="#797979" fill="none" />
  <path d="M 561 447  C 559.32 447  558 445.68  558 444  C 558 442.32  559.32 441  561 441  C 562.68 441  564 442.32  564 444  C 564 445.68  562.68 447  561 447  " fill-rule="nonzero" fill="#797979" stroke="none" />
</svg>