<?xml version="1.0" encoding="utf-8"?>
<svg version="1.1" xmlns:xlink="http://www.w3.org/1999/xlink" width="12px" height="12px" viewBox="913 438  12 12" xmlns="http://www.w3.org/2000/svg">
  <path d="M 919 438  C 922.36 438  925 440.64  925 444  C 925 447.36  922.36 450  919 450  C 915.64 450  913 447.36  913 444  C 913 440.64  915.64 438  919 438  Z " fill-rule="nonzero" fill="#ffffff" stroke="none" />
  <path d="M 919 438.5  C 922.08 438.5  924.5 440.92  924.5 444  C 924.5 447.08  922.08 449.5  919 449.5  C 915.92 449.5  913.5 447.08  913.5 444  C 913.5 440.92  915.92 438.5  919 438.5  Z " stroke-width="1" stroke="#797979" fill="none" />
  <path d="M 919 447  C 917.32 447  916 445.68  916 444  C 916 442.32  917.32 441  919 441  C 920.68 441  922 442.32  922 444  C 922 445.68  920.68 447  919 447  " fill-rule="nonzero" fill="#797979" stroke="none" />
</svg>