<?xml version="1.0" encoding="utf-8"?>
<svg version="1.1" xmlns:xlink="http://www.w3.org/1999/xlink" width="12px" height="12px" viewBox="627 438  12 12" xmlns="http://www.w3.org/2000/svg">
  <path d="M 633 438  C 636.36 438  639 440.64  639 444  C 639 447.36  636.36 450  633 450  C 629.64 450  627 447.36  627 444  C 627 440.64  629.64 438  633 438  Z " fill-rule="nonzero" fill="#ffffff" stroke="none" />
  <path d="M 633 438.5  C 636.08 438.5  638.5 440.92  638.5 444  C 638.5 447.08  636.08 449.5  633 449.5  C 629.92 449.5  627.5 447.08  627.5 444  C 627.5 440.92  629.92 438.5  633 438.5  Z " stroke-width="1" stroke="#797979" fill="none" />
  <path d="M 633 447  C 631.32 447  630 445.68  630 444  C 630 442.32  631.32 441  633 441  C 634.68 441  636 442.32  636 444  C 636 445.68  634.68 447  633 447  " fill-rule="nonzero" fill="#797979" stroke="none" />
</svg>