<?xml version="1.0" encoding="utf-8"?>
<svg version="1.1" xmlns:xlink="http://www.w3.org/1999/xlink" width="12px" height="12px" viewBox="267 473  12 12" xmlns="http://www.w3.org/2000/svg">
  <path d="M 273 473  C 276.36 473  279 475.64  279 479  C 279 482.36  276.36 485  273 485  C 269.64 485  267 482.36  267 479  C 267 475.64  269.64 473  273 473  Z " fill-rule="nonzero" fill="#ffffff" stroke="none" />
  <path d="M 273 473.5  C 276.08 473.5  278.5 475.92  278.5 479  C 278.5 482.08  276.08 484.5  273 484.5  C 269.92 484.5  267.5 482.08  267.5 479  C 267.5 475.92  269.92 473.5  273 473.5  Z " stroke-width="1" stroke="#797979" fill="none" />
  <path d="M 273 482  C 271.32 482  270 480.68  270 479  C 270 477.32  271.32 476  273 476  C 274.68 476  276 477.32  276 479  C 276 480.68  274.68 482  273 482  " fill-rule="nonzero" fill="#797979" stroke="none" />
</svg>