<?xml version="1.0" encoding="utf-8"?>
<svg version="1.1" xmlns:xlink="http://www.w3.org/1999/xlink" width="12px" height="12px" viewBox="329 438  12 12" xmlns="http://www.w3.org/2000/svg">
  <path d="M 335 438  C 338.36 438  341 440.64  341 444  C 341 447.36  338.36 450  335 450  C 331.64 450  329 447.36  329 444  C 329 440.64  331.64 438  335 438  Z " fill-rule="nonzero" fill="#ffffff" stroke="none" />
  <path d="M 335 438.5  C 338.08 438.5  340.5 440.92  340.5 444  C 340.5 447.08  338.08 449.5  335 449.5  C 331.92 449.5  329.5 447.08  329.5 444  C 329.5 440.92  331.92 438.5  335 438.5  Z " stroke-width="1" stroke="#797979" fill="none" />
  <path d="M 335 447  C 333.32 447  332 445.68  332 444  C 332 442.32  333.32 441  335 441  C 336.68 441  338 442.32  338 444  C 338 445.68  336.68 447  335 447  " fill-rule="nonzero" fill="#797979" stroke="none" />
</svg>