<?xml version="1.0" encoding="utf-8"?>
<svg version="1.1" xmlns:xlink="http://www.w3.org/1999/xlink" width="12px" height="12px" viewBox="259 438  12 12" xmlns="http://www.w3.org/2000/svg">
  <path d="M 265 438  C 268.36 438  271 440.64  271 444  C 271 447.36  268.36 450  265 450  C 261.64 450  259 447.36  259 444  C 259 440.64  261.64 438  265 438  Z " fill-rule="nonzero" fill="#ffffff" stroke="none" />
  <path d="M 265 438.5  C 268.08 438.5  270.5 440.92  270.5 444  C 270.5 447.08  268.08 449.5  265 449.5  C 261.92 449.5  259.5 447.08  259.5 444  C 259.5 440.92  261.92 438.5  265 438.5  Z " stroke-width="1" stroke="#797979" fill="none" />
  <path d="M 265 447  C 263.32 447  262 445.68  262 444  C 262 442.32  263.32 441  265 441  C 266.68 441  268 442.32  268 444  C 268 445.68  266.68 447  265 447  " fill-rule="nonzero" fill="#797979" stroke="none" />
</svg>