<?xml version="1.0" encoding="utf-8"?>
<svg version="1.1" xmlns:xlink="http://www.w3.org/1999/xlink" width="12px" height="12px" viewBox="115 438  12 12" xmlns="http://www.w3.org/2000/svg">
  <path d="M 121 438  C 124.36 438  127 440.64  127 444  C 127 447.36  124.36 450  121 450  C 117.64 450  115 447.36  115 444  C 115 440.64  117.64 438  121 438  Z " fill-rule="nonzero" fill="#ffffff" stroke="none" />
  <path d="M 121 438.5  C 124.08 438.5  126.5 440.92  126.5 444  C 126.5 447.08  124.08 449.5  121 449.5  C 117.92 449.5  115.5 447.08  115.5 444  C 115.5 440.92  117.92 438.5  121 438.5  Z " stroke-width="1" stroke="#797979" fill="none" />
  <path d="M 121 447  C 119.32 447  118 445.68  118 444  C 118 442.32  119.32 441  121 441  C 122.68 441  124 442.32  124 444  C 124 445.68  122.68 447  121 447  " fill-rule="nonzero" fill="#797979" stroke="none" />
</svg>