<?xml version="1.0" encoding="utf-8"?>
<svg version="1.1" xmlns:xlink="http://www.w3.org/1999/xlink" width="12px" height="12px" viewBox="187 438  12 12" xmlns="http://www.w3.org/2000/svg">
  <path d="M 193 438  C 196.36 438  199 440.64  199 444  C 199 447.36  196.36 450  193 450  C 189.64 450  187 447.36  187 444  C 187 440.64  189.64 438  193 438  Z " fill-rule="nonzero" fill="#ffffff" stroke="none" />
  <path d="M 193 438.5  C 196.08 438.5  198.5 440.92  198.5 444  C 198.5 447.08  196.08 449.5  193 449.5  C 189.92 449.5  187.5 447.08  187.5 444  C 187.5 440.92  189.92 438.5  193 438.5  Z " stroke-width="1" stroke="#797979" fill="none" />
  <path d="M 193 447  C 191.32 447  190 445.68  190 444  C 190 442.32  191.32 441  193 441  C 194.68 441  196 442.32  196 444  C 196 445.68  194.68 447  193 447  " fill-rule="nonzero" fill="#797979" stroke="none" />
</svg>