<?xml version="1.0" encoding="utf-8"?>
<svg version="1.1" xmlns:xlink="http://www.w3.org/1999/xlink" width="12px" height="12px" viewBox="545 438  12 12" xmlns="http://www.w3.org/2000/svg">
  <path d="M 551 438  C 554.36 438  557 440.64  557 444  C 557 447.36  554.36 450  551 450  C 547.64 450  545 447.36  545 444  C 545 440.64  547.64 438  551 438  Z " fill-rule="nonzero" fill="#ffffff" stroke="none" />
  <path d="M 551 438.5  C 554.08 438.5  556.5 440.92  556.5 444  C 556.5 447.08  554.08 449.5  551 449.5  C 547.92 449.5  545.5 447.08  545.5 444  C 545.5 440.92  547.92 438.5  551 438.5  Z " stroke-width="1" stroke="#797979" fill="none" />
  <path d="M 551 447  C 549.32 447  548 445.68  548 444  C 548 442.32  549.32 441  551 441  C 552.68 441  554 442.32  554 444  C 554 445.68  552.68 447  551 447  " fill-rule="nonzero" fill="#797979" stroke="none" />
</svg>