<?xml version="1.0" encoding="utf-8"?>
<svg version="1.1" xmlns:xlink="http://www.w3.org/1999/xlink" width="81px" height="25px" xmlns="http://www.w3.org/2000/svg">
  <g transform="matrix(1 0 0 1 -178 -137 )">
    <path d="M 178 137  L 259 137  L 259 162  L 178 162  L 178 137  " fill-rule="nonzero" fill="#cccccc" stroke="none" />
    <path d="M 180 139  L 257 139  L 257 160  L 180 160  L 180 139  " fill-rule="nonzero" fill="#ffffff" stroke="none" />
    <path d="M 221.995 144.5  C 220.945 144.5  220.12 143.675  220.12 142.625  C 220.12 141.575  220.945 140.75  221.995 140.75  C 223.045 140.75  223.87 141.575  223.87 142.625  C 223.87 143.675  223.045 144.5  221.995 144.5  " fill-rule="nonzero" fill="#cccccc" stroke="none" />
    <path d="M 181 160  L 181 149  L 200 144  L 226.6 156.296296296296  L 241.8 147  L 257 156.296296296296  L 257 160  L 181 160  " fill-rule="nonzero" fill="#169bd5" stroke="none" />
  </g>
</svg>