<?xml version="1.0" encoding="utf-8"?>
<svg version="1.1" xmlns:xlink="http://www.w3.org/1999/xlink" width="90px" height="54px" xmlns="http://www.w3.org/2000/svg">
  <g transform="matrix(1 0 0 1 -213 -983 )">
    <path d="M 213 983  L 303 983  L 303 1037  L 213 1037  L 213 983  " fill-rule="nonzero" fill="#cccccc" stroke="none" />
    <path d="M 217 987  L 299 987  L 299 1033  L 217 1033  L 217 987  " fill-rule="nonzero" fill="#ffffff" stroke="none" />
    <path d="M 263.85 999.2  C 261.582 999.2  259.8 997.418  259.8 995.15  C 259.8 992.882  261.582 991.1  263.85 991.1  C 266.118 991.1  267.9 992.882  267.9 995.15  C 267.9 997.418  266.118 999.2  263.85 999.2  " fill-rule="nonzero" fill="#cccccc" stroke="none" />
    <path d="M 219 1032  L 219 1008.35  L 238.75 997.6  L 266.4 1016.52  L 282.2 1004.05  L 298 1016.52  L 298 1032  L 219 1032  " fill-rule="nonzero" fill="#169bd5" stroke="none" />
  </g>
</svg>