<?xml version="1.0" encoding="utf-8"?>
<svg version="1.1" xmlns:xlink="http://www.w3.org/1999/xlink" width="20px" height="20px" xmlns="http://www.w3.org/2000/svg">
  <g transform="matrix(1 0 0 1 -778 -826 )">
    <path d="M 788 826  C 793.6 826  798 830.4  798 836  C 798 841.6  793.6 846  788 846  C 782.4 846  778 841.6  778 836  C 778 830.4  782.4 826  788 826  Z " fill-rule="nonzero" fill="#ffffff" stroke="none" />
    <path d="M 788 826.5  C 793.32 826.5  797.5 830.68  797.5 836  C 797.5 841.32  793.32 845.5  788 845.5  C 782.68 845.5  778.5 841.32  778.5 836  C 778.5 830.68  782.68 826.5  788 826.5  Z " stroke-width="1" stroke="#797979" fill="none" />
  </g>
</svg>