<?xml version="1.0" encoding="utf-8"?>
<svg version="1.1" xmlns:xlink="http://www.w3.org/1999/xlink" width="12px" height="12px" viewBox="783 114  12 12" xmlns="http://www.w3.org/2000/svg">
  <path d="M 789 114  C 792.36 114  795 116.64  795 120  C 795 123.36  792.36 126  789 126  C 785.64 126  783 123.36  783 120  C 783 116.64  785.64 114  789 114  Z " fill-rule="nonzero" fill="#ffffff" stroke="none" />
  <path d="M 789 114.5  C 792.08 114.5  794.5 116.92  794.5 120  C 794.5 123.08  792.08 125.5  789 125.5  C 785.92 125.5  783.5 123.08  783.5 120  C 783.5 116.92  785.92 114.5  789 114.5  Z " stroke-width="1" stroke="#797979" fill="none" />
  <path d="M 789 123  C 787.32 123  786 121.68  786 120  C 786 118.32  787.32 117  789 117  C 790.68 117  792 118.32  792 120  C 792 121.68  790.68 123  789 123  " fill-rule="nonzero" fill="#797979" stroke="none" />
</svg>