<?xml version="1.0" encoding="utf-8"?>
<svg version="1.1" xmlns:xlink="http://www.w3.org/1999/xlink" width="12px" height="12px" viewBox="506 214  12 12" xmlns="http://www.w3.org/2000/svg">
  <path d="M 512 214  C 515.36 214  518 216.64  518 220  C 518 223.36  515.36 226  512 226  C 508.64 226  506 223.36  506 220  C 506 216.64  508.64 214  512 214  Z " fill-rule="nonzero" fill="#ffffff" stroke="none" />
  <path d="M 512 214.5  C 515.08 214.5  517.5 216.92  517.5 220  C 517.5 223.08  515.08 225.5  512 225.5  C 508.92 225.5  506.5 223.08  506.5 220  C 506.5 216.92  508.92 214.5  512 214.5  Z " stroke-width="1" stroke="#797979" fill="none" />
  <path d="M 512 223  C 510.32 223  509 221.68  509 220  C 509 218.32  510.32 217  512 217  C 513.68 217  515 218.32  515 220  C 515 221.68  513.68 223  512 223  " fill-rule="nonzero" fill="#797979" stroke="none" />
</svg>