<?xml version="1.0" encoding="utf-8"?>
<svg version="1.1" xmlns:xlink="http://www.w3.org/1999/xlink" width="12px" height="12px" viewBox="506 179  12 12" xmlns="http://www.w3.org/2000/svg">
  <path d="M 512 179  C 515.36 179  518 181.64  518 185  C 518 188.36  515.36 191  512 191  C 508.64 191  506 188.36  506 185  C 506 181.64  508.64 179  512 179  Z " fill-rule="nonzero" fill="#ffffff" stroke="none" />
  <path d="M 512 179.5  C 515.08 179.5  517.5 181.92  517.5 185  C 517.5 188.08  515.08 190.5  512 190.5  C 508.92 190.5  506.5 188.08  506.5 185  C 506.5 181.92  508.92 179.5  512 179.5  Z " stroke-width="1" stroke="#797979" fill="none" />
  <path d="M 512 188  C 510.32 188  509 186.68  509 185  C 509 183.32  510.32 182  512 182  C 513.68 182  515 183.32  515 185  C 515 186.68  513.68 188  512 188  " fill-rule="nonzero" fill="#797979" stroke="none" />
</svg>