<?xml version="1.0" encoding="utf-8"?>
<svg version="1.1" xmlns:xlink="http://www.w3.org/1999/xlink" width="12px" height="12px" viewBox="721 634  12 12" xmlns="http://www.w3.org/2000/svg">
  <path d="M 727 634  C 730.36 634  733 636.64  733 640  C 733 643.36  730.36 646  727 646  C 723.64 646  721 643.36  721 640  C 721 636.64  723.64 634  727 634  Z " fill-rule="nonzero" fill="#ffffff" stroke="none" />
  <path d="M 727 634.5  C 730.08 634.5  732.5 636.92  732.5 640  C 732.5 643.08  730.08 645.5  727 645.5  C 723.92 645.5  721.5 643.08  721.5 640  C 721.5 636.92  723.92 634.5  727 634.5  Z " stroke-width="1" stroke="#797979" fill="none" />
  <path d="M 727 643  C 725.32 643  724 641.68  724 640  C 724 638.32  725.32 637  727 637  C 728.68 637  730 638.32  730 640  C 730 641.68  728.68 643  727 643  " fill-rule="nonzero" fill="#797979" stroke="none" />
</svg>