<?xml version="1.0" encoding="utf-8"?>
<svg version="1.1" xmlns:xlink="http://www.w3.org/1999/xlink" width="12px" height="12px" viewBox="607 634  12 12" xmlns="http://www.w3.org/2000/svg">
  <path d="M 613 634  C 616.36 634  619 636.64  619 640  C 619 643.36  616.36 646  613 646  C 609.64 646  607 643.36  607 640  C 607 636.64  609.64 634  613 634  Z " fill-rule="nonzero" fill="#ffffff" stroke="none" />
  <path d="M 613 634.5  C 616.08 634.5  618.5 636.92  618.5 640  C 618.5 643.08  616.08 645.5  613 645.5  C 609.92 645.5  607.5 643.08  607.5 640  C 607.5 636.92  609.92 634.5  613 634.5  Z " stroke-width="1" stroke="#797979" fill="none" />
  <path d="M 613 643  C 611.32 643  610 641.68  610 640  C 610 638.32  611.32 637  613 637  C 614.68 637  616 638.32  616 640  C 616 641.68  614.68 643  613 643  " fill-rule="nonzero" fill="#797979" stroke="none" />
</svg>