<?xml version="1.0" encoding="utf-8"?>
<svg version="1.1" xmlns:xlink="http://www.w3.org/1999/xlink" width="12px" height="12px" viewBox="426 634  12 12" xmlns="http://www.w3.org/2000/svg">
  <path d="M 432 634  C 435.36 634  438 636.64  438 640  C 438 643.36  435.36 646  432 646  C 428.64 646  426 643.36  426 640  C 426 636.64  428.64 634  432 634  Z " fill-rule="nonzero" fill="#ffffff" stroke="none" />
  <path d="M 432 634.5  C 435.08 634.5  437.5 636.92  437.5 640  C 437.5 643.08  435.08 645.5  432 645.5  C 428.92 645.5  426.5 643.08  426.5 640  C 426.5 636.92  428.92 634.5  432 634.5  Z " stroke-width="1" stroke="#797979" fill="none" />
  <path d="M 432 643  C 430.32 643  429 641.68  429 640  C 429 638.32  430.32 637  432 637  C 433.68 637  435 638.32  435 640  C 435 641.68  433.68 643  432 643  " fill-rule="nonzero" fill="#797979" stroke="none" />
</svg>