<?xml version="1.0" encoding="utf-8"?>
<svg version="1.1" xmlns:xlink="http://www.w3.org/1999/xlink" width="20px" height="20px" xmlns="http://www.w3.org/2000/svg">
  <g transform="matrix(1 0 0 1 -340 -358 )">
    <path d="M 350 358  C 355.6 358  360 362.4  360 368  C 360 373.6  355.6 378  350 378  C 344.4 378  340 373.6  340 368  C 340 362.4  344.4 358  350 358  Z " fill-rule="nonzero" fill="#ffffff" stroke="none" />
    <path d="M 350 358.5  C 355.32 358.5  359.5 362.68  359.5 368  C 359.5 373.32  355.32 377.5  350 377.5  C 344.68 377.5  340.5 373.32  340.5 368  C 340.5 362.68  344.68 358.5  350 358.5  Z " stroke-width="1" stroke="#ff0000" fill="none" />
  </g>
</svg>