<?xml version="1.0" encoding="utf-8"?>
<svg version="1.1" xmlns:xlink="http://www.w3.org/1999/xlink" width="12px" height="12px" xmlns="http://www.w3.org/2000/svg">
  <g transform="matrix(1 0 0 1 -186 -99 )">
    <path d="M 7.1055900621118 5.72344689378758  C 7.18840579710145 5.80360721442886  7.22981366459627 5.89579158316633  7.22981366459627 6  C 7.22981366459627 6.10420841683367  7.18840579710145 6.19639278557114  7.1055900621118 6.27655310621242  L 1.3167701863354 11.8797595190381  C 1.23395445134576 11.9599198396794  1.13871635610766 12  1.03105590062112 12  C 0.923395445134576 12  0.82815734989648 11.9599198396794  0.745341614906832 11.8797595190381  L 0.124223602484472 11.2785571142285  C 0.041407867494824 11.1983967935872  0 11.1062124248497  0 11.002004008016  C 0 10.8977955911824  0.041407867494824 10.8056112224449  0.124223602484472 10.7254509018036  L 5.00621118012422 6  L 0.124223602484472 1.27454909819639  C 0.041407867494824 1.19438877755511  0 1.10220440881763  0 0.997995991983968  C 0 0.893787575150299  0.041407867494824 0.801603206412824  0.124223602484472 0.721442885771542  L 0.745341614906832 0.120240480961924  C 0.82815734989648 0.0400801603206409  0.923395445134576 0  1.03105590062112 0  C 1.13871635610766 0  1.23395445134576 0.0400801603206409  1.3167701863354 0.120240480961924  L 7.1055900621118 5.72344689378758  Z M 11.8757763975155 5.72344689378758  C 11.9585921325052 5.80360721442886  12 5.89579158316633  12 6  C 12 6.10420841683367  11.9585921325052 6.19639278557114  11.8757763975155 6.27655310621242  L 6.08695652173913 11.8797595190381  C 6.00414078674948 11.9599198396794  5.90890269151139 12  5.80124223602484 12  C 5.6935817805383 12  5.59834368530021 11.9599198396794  5.51552795031056 11.8797595190381  L 4.8944099378882 11.2785571142285  C 4.81159420289855 11.1983967935872  4.77018633540373 11.1062124248497  4.77018633540373 11.002004008016  C 4.77018633540373 10.8977955911824  4.81159420289855 10.8056112224449  4.8944099378882 10.7254509018036  L 9.77639751552795 6  L 4.8944099378882 1.27454909819639  C 4.81159420289855 1.19438877755511  4.77018633540373 1.10220440881763  4.77018633540373 0.997995991983968  C 4.77018633540373 0.893787575150299  4.81159420289855 0.801603206412824  4.8944099378882 0.721442885771542  L 5.51552795031056 0.120240480961924  C 5.59834368530021 0.0400801603206409  5.6935817805383 0  5.80124223602484 0  C 5.90890269151139 0  6.00414078674948 0.0400801603206409  6.08695652173913 0.120240480961924  L 11.8757763975155 5.72344689378758  Z " fill-rule="nonzero" fill="#999999" stroke="none" transform="matrix(1 0 0 1 186 99 )" />
  </g>
</svg>