<?xml version="1.0" encoding="utf-8"?>
<svg version="1.1" xmlns:xlink="http://www.w3.org/1999/xlink" width="12px" height="12px" viewBox="242 1488  12 12" xmlns="http://www.w3.org/2000/svg">
  <path d="M 248 1488  C 251.36 1488  254 1490.64  254 1494  C 254 1497.36  251.36 1500  248 1500  C 244.64 1500  242 1497.36  242 1494  C 242 1490.64  244.64 1488  248 1488  Z " fill-rule="nonzero" fill="#ffffff" stroke="none" />
  <path d="M 248 1488.5  C 251.08 1488.5  253.5 1490.92  253.5 1494  C 253.5 1497.08  251.08 1499.5  248 1499.5  C 244.92 1499.5  242.5 1497.08  242.5 1494  C 242.5 1490.92  244.92 1488.5  248 1488.5  Z " stroke-width="1" stroke="#797979" fill="none" />
  <path d="M 248 1497  C 246.32 1497  245 1495.68  245 1494  C 245 1492.32  246.32 1491  248 1491  C 249.68 1491  251 1492.32  251 1494  C 251 1495.68  249.68 1497  248 1497  " fill-rule="nonzero" fill="#797979" stroke="none" />
</svg>