<?xml version="1.0" encoding="utf-8"?>
<svg version="1.1" xmlns:xlink="http://www.w3.org/1999/xlink" width="12px" height="12px" viewBox="412 1488  12 12" xmlns="http://www.w3.org/2000/svg">
  <path d="M 418 1488  C 421.36 1488  424 1490.64  424 1494  C 424 1497.36  421.36 1500  418 1500  C 414.64 1500  412 1497.36  412 1494  C 412 1490.64  414.64 1488  418 1488  Z " fill-rule="nonzero" fill="#ffffff" stroke="none" />
  <path d="M 418 1488.5  C 421.08 1488.5  423.5 1490.92  423.5 1494  C 423.5 1497.08  421.08 1499.5  418 1499.5  C 414.92 1499.5  412.5 1497.08  412.5 1494  C 412.5 1490.92  414.92 1488.5  418 1488.5  Z " stroke-width="1" stroke="#797979" fill="none" />
  <path d="M 418 1497  C 416.32 1497  415 1495.68  415 1494  C 415 1492.32  416.32 1491  418 1491  C 419.68 1491  421 1492.32  421 1494  C 421 1495.68  419.68 1497  418 1497  " fill-rule="nonzero" fill="#797979" stroke="none" />
</svg>