<?xml version="1.0" encoding="utf-8"?>
<svg version="1.1" xmlns:xlink="http://www.w3.org/1999/xlink" width="12px" height="12px" viewBox="250 1638  12 12" xmlns="http://www.w3.org/2000/svg">
  <path d="M 256 1638  C 259.36 1638  262 1640.64  262 1644  C 262 1647.36  259.36 1650  256 1650  C 252.64 1650  250 1647.36  250 1644  C 250 1640.64  252.64 1638  256 1638  Z " fill-rule="nonzero" fill="#ffffff" stroke="none" />
  <path d="M 256 1638.5  C 259.08 1638.5  261.5 1640.92  261.5 1644  C 261.5 1647.08  259.08 1649.5  256 1649.5  C 252.92 1649.5  250.5 1647.08  250.5 1644  C 250.5 1640.92  252.92 1638.5  256 1638.5  Z " stroke-width="1" stroke="#797979" fill="none" />
  <path d="M 256 1647  C 254.32 1647  253 1645.68  253 1644  C 253 1642.32  254.32 1641  256 1641  C 257.68 1641  259 1642.32  259 1644  C 259 1645.68  257.68 1647  256 1647  " fill-rule="nonzero" fill="#797979" stroke="none" />
</svg>