<?xml version="1.0" encoding="utf-8"?>
<svg version="1.1" xmlns:xlink="http://www.w3.org/1999/xlink" width="12px" height="12px" viewBox="561 745  12 12" xmlns="http://www.w3.org/2000/svg">
  <path d="M 567 745  C 570.36 745  573 747.64  573 751  C 573 754.36  570.36 757  567 757  C 563.64 757  561 754.36  561 751  C 561 747.64  563.64 745  567 745  Z " fill-rule="nonzero" fill="#ffffff" stroke="none" />
  <path d="M 567 745.5  C 570.08 745.5  572.5 747.92  572.5 751  C 572.5 754.08  570.08 756.5  567 756.5  C 563.92 756.5  561.5 754.08  561.5 751  C 561.5 747.92  563.92 745.5  567 745.5  Z " stroke-width="1" stroke="#797979" fill="none" />
  <path d="M 567 754  C 565.32 754  564 752.68  564 751  C 564 749.32  565.32 748  567 748  C 568.68 748  570 749.32  570 751  C 570 752.68  568.68 754  567 754  " fill-rule="nonzero" fill="#797979" stroke="none" />
</svg>