<?xml version="1.0" encoding="utf-8"?>
<svg version="1.1" xmlns:xlink="http://www.w3.org/1999/xlink" width="30px" height="30px" xmlns="http://www.w3.org/2000/svg">
  <g>
    <path d="M 11.9955614396558 10.8647450843758  L 15 1.61803398874989  L 18.0044385603442 10.8647450843758  L 27.7270059758397 10.8647450843758  L 19.8612837077477 16.5795268256234  L 22.8657222680919 25.8262379212493  L 15 20.1114561800017  L 7.13427773190806 25.8262379212493  L 10.1387162922523 16.5795268256234  L 2.27299402416032 10.8647450843758  L 11.9955614396558 10.8647450843758  Z " fill-rule="nonzero" fill="#63d1c4" stroke="none" />
    <path d="M 11.6322901756531 10.3647450843758  L 15 0  L 18.3677098243469 10.3647450843758  L 29.2658477444273 10.3647450843758  L 20.4490689600402 16.7705098312484  L 23.8167787843871 27.1352549156242  L 15 20.7294901687516  L 6.1832212156129 27.1352549156242  L 9.55093103995979 16.7705098312484  L 0.734152255572695 10.3647450843758  L 11.6322901756531 10.3647450843758  Z M 15 3.23606797749979  L 12.3588327036585 11.3647450843758  L 3.81183579274795 11.3647450843758  L 10.7265015445447 16.3885438199983  L 8.08533424820321 24.5172209268743  L 15 19.4934221912518  L 21.9146657517968 24.5172209268743  L 19.2734984554553 16.3885438199983  L 26.1881642072521 11.3647450843758  L 17.6411672963415 11.3647450843758  L 15 3.23606797749979  Z " fill-rule="nonzero" fill="#33cc99" stroke="none" />
  </g>
</svg>