<?xml version="1.0" encoding="utf-8"?>
<svg version="1.1" xmlns:xlink="http://www.w3.org/1999/xlink" width="57px" height="52px" xmlns="http://www.w3.org/2000/svg">
  <g transform="matrix(1 0 0 1 -573 -104 )">
    <path d="M 573 104  L 630 104  L 630 156  L 573 156  L 573 104  " fill-rule="nonzero" fill="#cccccc" stroke="none" />
    <path d="M 577 108  L 626 108  L 626 152  L 577 152  L 577 108  " fill-rule="nonzero" fill="#ffffff" stroke="none" />
    <path d="M 606.54 119.6  C 604.356 119.6  602.64 117.884  602.64 115.7  C 602.64 113.516  604.356 111.8  606.54 111.8  C 608.724 111.8  610.44 113.516  610.44 115.7  C 610.44 117.884  608.724 119.6  606.54 119.6  " fill-rule="nonzero" fill="#cccccc" stroke="none" />
    <path d="M 579 151  L 579 128.45  L 590.5 118.2  L 606.6 128.557894736842  L 615.8 124.35  L 625 128.557894736842  L 625 151  L 579 151  " fill-rule="nonzero" fill="#169bd5" stroke="none" />
  </g>
</svg>