<?xml version="1.0" encoding="utf-8"?>
<svg version="1.1" xmlns:xlink="http://www.w3.org/1999/xlink" width="12px" height="12px" viewBox="465 299  12 12" xmlns="http://www.w3.org/2000/svg">
  <path d="M 471 299  C 474.36 299  477 301.64  477 305  C 477 308.36  474.36 311  471 311  C 467.64 311  465 308.36  465 305  C 465 301.64  467.64 299  471 299  Z " fill-rule="nonzero" fill="#ffffff" stroke="none" />
  <path d="M 471 299.5  C 474.08 299.5  476.5 301.92  476.5 305  C 476.5 308.08  474.08 310.5  471 310.5  C 467.92 310.5  465.5 308.08  465.5 305  C 465.5 301.92  467.92 299.5  471 299.5  Z " stroke-width="1" stroke="#797979" fill="none" />
  <path d="M 471 308  C 469.32 308  468 306.68  468 305  C 468 303.32  469.32 302  471 302  C 472.68 302  474 303.32  474 305  C 474 306.68  472.68 308  471 308  " fill-rule="nonzero" fill="#797979" stroke="none" />
</svg>