<?xml version="1.0" encoding="utf-8"?>
<svg version="1.1" xmlns:xlink="http://www.w3.org/1999/xlink" width="12px" height="12px" viewBox="606 233  12 12" xmlns="http://www.w3.org/2000/svg">
  <path d="M 612 233  C 615.36 233  618 235.64  618 239  C 618 242.36  615.36 245  612 245  C 608.64 245  606 242.36  606 239  C 606 235.64  608.64 233  612 233  Z " fill-rule="nonzero" fill="#ffffff" stroke="none" />
  <path d="M 612 233.5  C 615.08 233.5  617.5 235.92  617.5 239  C 617.5 242.08  615.08 244.5  612 244.5  C 608.92 244.5  606.5 242.08  606.5 239  C 606.5 235.92  608.92 233.5  612 233.5  Z " stroke-width="1" stroke="#797979" fill="none" />
  <path d="M 612 242  C 610.32 242  609 240.68  609 239  C 609 237.32  610.32 236  612 236  C 613.68 236  615 237.32  615 239  C 615 240.68  613.68 242  612 242  " fill-rule="nonzero" fill="#797979" stroke="none" />
</svg>