<?xml version="1.0" encoding="utf-8"?>
<svg version="1.1" xmlns:xlink="http://www.w3.org/1999/xlink" width="12px" height="12px" viewBox="465 233  12 12" xmlns="http://www.w3.org/2000/svg">
  <path d="M 471 233  C 474.36 233  477 235.64  477 239  C 477 242.36  474.36 245  471 245  C 467.64 245  465 242.36  465 239  C 465 235.64  467.64 233  471 233  Z " fill-rule="nonzero" fill="#ffffff" stroke="none" />
  <path d="M 471 233.5  C 474.08 233.5  476.5 235.92  476.5 239  C 476.5 242.08  474.08 244.5  471 244.5  C 467.92 244.5  465.5 242.08  465.5 239  C 465.5 235.92  467.92 233.5  471 233.5  Z " stroke-width="1" stroke="#797979" fill="none" />
  <path d="M 471 242  C 469.32 242  468 240.68  468 239  C 468 237.32  469.32 236  471 236  C 472.68 236  474 237.32  474 239  C 474 240.68  472.68 242  471 242  " fill-rule="nonzero" fill="#797979" stroke="none" />
</svg>