<?xml version="1.0" encoding="utf-8"?>
<svg version="1.1" xmlns:xlink="http://www.w3.org/1999/xlink" width="35px" height="32px" xmlns="http://www.w3.org/2000/svg">
  <g transform="matrix(1 0 0 1 -1662 -38 )">
    <path d="M 33.96484375 14.46  C 34.6549479166667 16.2466666666667  35 18.4666666666667  35 21.12  C 35 23.3333333333333  34.1731770833333 26.34  32.51953125 30.14  C 32.48046875 30.2333333333333  32.412109375 30.3933333333333  32.314453125 30.62  C 32.216796875 30.8466666666667  32.12890625 31.0466666666667  32.05078125 31.22  C 31.97265625 31.3933333333333  31.8880208333333 31.54  31.796875 31.66  C 31.640625 31.8866666666667  31.4583333333333 32  31.25 32  C 31.0546875 32  30.9016927083333 31.9333333333333  30.791015625 31.8  C 30.6803385416667 31.6666666666667  30.625 31.5  30.625 31.3  C 30.625 31.18  30.6412760416667 31.0033333333333  30.673828125 30.77  C 30.7063802083333 30.5366666666667  30.72265625 30.38  30.72265625 30.3  C 30.7877604166667 29.3933333333333  30.8203125 28.5733333333333  30.8203125 27.84  C 30.8203125 26.4933333333333  30.7063802083333 25.2866666666667  30.478515625 24.22  C 30.2506510416667 23.1533333333333  29.9348958333333 22.23  29.53125 21.45  C 29.1276041666667 20.67  28.6067708333333 19.9966666666667  27.96875 19.43  C 27.3307291666667 18.8633333333333  26.6438802083333 18.4  25.908203125 18.04  C 25.1725260416667 17.68  24.306640625 17.3966666666667  23.310546875 17.19  C 22.314453125 16.9833333333333  21.3118489583333 16.84  20.302734375 16.76  C 19.2936197916667 16.68  18.1510416666667 16.64  16.875 16.64  L 12.5 16.64  L 12.5 21.76  C 12.5 22.1066666666667  12.3763020833333 22.4066666666667  12.12890625 22.66  C 11.8815104166667 22.9133333333333  11.5885416666667 23.04  11.25 23.04  C 10.9114583333333 23.04  10.6184895833333 22.9133333333333  10.37109375 22.66  L 0.37109375 12.42  C 0.123697916666667 12.1666666666667  0 11.8666666666667  0 11.52  C 0 11.1733333333333  0.123697916666667 10.8733333333333  0.37109375 10.62  L 10.37109375 0.379999999999999  C 10.6184895833333 0.126666666666665  10.9114583333333 0  11.25 0  C 11.5885416666667 0  11.8815104166667 0.126666666666665  12.12890625 0.379999999999999  C 12.3763020833333 0.633333333333329  12.5 0.93333333333333  12.5 1.28  L 12.5 6.4  L 16.875 6.4  C 26.1588541666667 6.4  31.85546875 9.08666666666667  33.96484375 14.46  Z " fill-rule="nonzero" fill="#ffffff" stroke="none" transform="matrix(1 0 0 1 1662 38 )" />
  </g>
</svg>