<?xml version="1.0" encoding="utf-8"?>
<svg version="1.1" xmlns:xlink="http://www.w3.org/1999/xlink" width="14px" height="14px" xmlns="http://www.w3.org/2000/svg">
  <g transform="matrix(1 0 0 1 -19 -34 )">
    <path d="M 8.5859375 8.5859375  C 9.32351762820512 7.84835737179486  9.69230769230769 6.96073717948718  9.69230769230769 5.92307692307691  C 9.69230769230769 4.88541666666669  9.32351762820512 3.99779647435895  8.5859375 3.26021634615387  C 7.84835737179488 2.52263621794873  6.96073717948718 2.15384615384613  5.92307692307692 2.15384615384613  C 4.88541666666667 2.15384615384613  3.99779647435898 2.52263621794873  3.26021634615384 3.26021634615387  C 2.52263621794872 3.99779647435895  2.15384615384616 4.88541666666669  2.15384615384616 5.92307692307691  C 2.15384615384616 6.96073717948718  2.52263621794872 7.84835737179486  3.26021634615384 8.5859375  C 3.99779647435898 9.32351762820514  4.88541666666667 9.69230769230768  5.92307692307692 9.69230769230768  C 6.96073717948718 9.69230769230768  7.84835737179488 9.32351762820514  8.5859375 8.5859375  Z M 13.6887019230769 12.1658653846154  C 13.896233974359 12.3733974358975  14 12.6258012820513  14 12.9230769230769  C 14 13.2147435897436  13.8934294871795 13.4671474358975  13.6802884615385 13.6802884615385  C 13.4671474358974 13.8934294871795  13.2147435897436 14  12.9230769230769 14  C 12.6201923076923 14  12.3677884615385 13.8934294871795  12.1658653846154 13.6802884615385  L 9.28004807692308 10.8028846153846  C 8.27604166666667 11.4983974358975  7.15705128205128 11.8461538461539  5.92307692307692 11.8461538461539  C 5.12099358974359 11.8461538461539  4.35396634615384 11.6905048076923  3.62199519230769 11.3792067307692  C 2.89002403846153 11.0679086538461  2.25901442307692 10.6472355769231  1.72896634615384 10.1171875  C 1.19891826923077 9.58713942307691  0.778245192307693 8.95612980769232  0.466947115384613 8.22415865384613  C 0.155649038461533 7.4921875  0 6.72516025641028  0 5.92307692307691  C 0 5.12099358974359  0.155649038461533 4.35396634615387  0.466947115384613 3.62199519230768  C 0.778245192307693 2.89002403846155  1.19891826923077 2.25901442307691  1.72896634615384 1.72896634615387  C 2.25901442307692 1.19891826923077  2.89002403846153 0.778245192307679  3.62199519230769 0.466947115384642  C 4.35396634615384 0.155649038461547  5.12099358974359 0  5.92307692307692 0  C 6.72516025641026 0  7.4921875 0.155649038461547  8.22415865384616 0.466947115384642  C 8.95612980769231 0.778245192307679  9.58713942307692 1.19891826923077  10.1171875 1.72896634615387  C 10.6472355769231 2.25901442307691  11.0679086538462 2.89002403846155  11.3792067307692 3.62199519230768  C 11.6905048076923 4.35396634615387  11.8461538461538 5.12099358974359  11.8461538461538 5.92307692307691  C 11.8461538461538 7.15705128205127  11.4983974358974 8.27604166666669  10.8028846153846 9.28004807692309  L 13.6887019230769 12.1658653846154  Z " fill-rule="nonzero" fill="#797979" stroke="none" transform="matrix(1 0 0 1 19 34 )" />
  </g>
</svg>