<?xml version="1.0" encoding="utf-8"?>
<svg version="1.1" xmlns:xlink="http://www.w3.org/1999/xlink" width="18px" height="14px" xmlns="http://www.w3.org/2000/svg">
  <g transform="matrix(1 0 0 1 -17 -164 )">
    <path d="M 2.47600446428572 11.5490056818182  C 2.53962053571428 11.6119791666666  2.57142857142858 11.686553030303  2.57142857142858 11.7727272727273  L 2.57142857142858 13.6818181818182  C 2.57142857142858 13.7679924242424  2.53962053571428 13.8425662878788  2.47600446428572 13.9055397727273  C 2.41238839285714 13.9685132575758  2.33705357142858 14  2.24999999999997 14  L 0.321428571428555 14  C 0.234375 14  0.159040178571445 13.9685132575758  0.0954241071428328 13.9055397727273  C 0.0318080357142776 13.8425662878788  0 13.7679924242424  0 13.6818181818182  L 0 11.7727272727273  C 0 11.686553030303  0.0318080357142776 11.6119791666666  0.0954241071428328 11.5490056818182  C 0.159040178571445 11.4860321969697  0.234375 11.4545454545454  0.321428571428555 11.4545454545454  L 2.24999999999997 11.4545454545454  C 2.33705357142858 11.4545454545454  2.41238839285714 11.4860321969697  2.47600446428572 11.5490056818182  Z M 2.47600446428572 7.73082386363637  C 2.53962053571428 7.79379734848487  2.57142857142858 7.86837121212125  2.57142857142858 7.95454545454544  L 2.57142857142858 9.86363636363637  C 2.57142857142858 9.94981060606062  2.53962053571428 10.024384469697  2.47600446428572 10.0873579545454  C 2.41238839285714 10.1503314393939  2.33705357142858 10.1818181818182  2.24999999999997 10.1818181818182  L 0.321428571428555 10.1818181818182  C 0.234375 10.1818181818182  0.159040178571445 10.1503314393939  0.0954241071428328 10.0873579545454  C 0.0318080357142776 10.024384469697  0 9.94981060606062  0 9.86363636363637  L 0 7.95454545454544  C 0 7.86837121212125  0.0318080357142776 7.79379734848487  0.0954241071428328 7.73082386363637  C 0.159040178571445 7.66785037878788  0.234375 7.63636363636363  0.321428571428555 7.63636363636363  L 2.24999999999997 7.63636363636363  C 2.33705357142858 7.63636363636363  2.41238839285714 7.66785037878788  2.47600446428572 7.73082386363637  Z M 2.47600446428572 3.91264204545456  C 2.53962053571428 3.975615530303  2.57142857142858 4.05018939393938  2.57142857142858 4.13636363636363  L 2.57142857142858 6.04545454545456  C 2.57142857142858 6.13162878787875  2.53962053571428 6.20620265151513  2.47600446428572 6.26917613636363  C 2.41238839285714 6.33214962121212  2.33705357142858 6.36363636363637  2.24999999999997 6.36363636363637  L 0.321428571428555 6.36363636363637  C 0.234375 6.36363636363637  0.159040178571445 6.33214962121212  0.0954241071428328 6.26917613636363  C 0.0318080357142776 6.20620265151513  0 6.13162878787875  0 6.04545454545456  L 0 4.13636363636363  C 0 4.05018939393938  0.0318080357142776 3.975615530303  0.0954241071428328 3.91264204545456  C 0.159040178571445 3.84966856060606  0.234375 3.81818181818181  0.321428571428555 3.81818181818181  L 2.24999999999997 3.81818181818181  C 2.33705357142858 3.81818181818181  2.41238839285714 3.84966856060606  2.47600446428572 3.91264204545456  Z M 17.9045758928571 11.5490056818182  C 17.9681919642857 11.6119791666666  18 11.686553030303  18 11.7727272727273  L 18 13.6818181818182  C 18 13.7679924242424  17.9681919642857 13.8425662878788  17.9045758928571 13.9055397727273  C 17.8409598214285 13.9685132575758  17.765625 14  17.6785714285714 14  L 4.17857142857142 14  C 4.09151785714283 14  4.01618303571428 13.9685132575758  3.95256696428572 13.9055397727273  C 3.88895089285714 13.8425662878788  3.85714285714283 13.7679924242424  3.85714285714283 13.6818181818182  L 3.85714285714283 11.7727272727273  C 3.85714285714283 11.686553030303  3.88895089285714 11.6119791666666  3.95256696428572 11.5490056818182  C 4.01618303571428 11.4860321969697  4.09151785714283 11.4545454545454  4.17857142857142 11.4545454545454  L 17.6785714285714 11.4545454545454  C 17.765625 11.4545454545454  17.8409598214285 11.4860321969697  17.9045758928571 11.5490056818182  Z M 2.47600446428572 0.0944602272727479  C 2.53962053571428 0.157433712121247  2.57142857142858 0.232007575757621  2.57142857142858 0.318181818181813  L 2.57142857142858 2.22727272727275  C 2.57142857142858 2.31344696969694  2.53962053571428 2.38802083333337  2.47600446428572 2.45099431818181  C 2.41238839285714 2.51396780303031  2.33705357142858 2.54545454545456  2.24999999999997 2.54545454545456  L 0.321428571428555 2.54545454545456  C 0.234375 2.54545454545456  0.159040178571445 2.51396780303031  0.0954241071428328 2.45099431818181  C 0.0318080357142776 2.38802083333337  0 2.31344696969694  0 2.22727272727275  L 0 0.318181818181813  C 0 0.232007575757621  0.0318080357142776 0.157433712121247  0.0954241071428328 0.0944602272727479  C 0.159040178571445 0.0314867424242493  0.234375 0  0.321428571428555 0  L 2.24999999999997 0  C 2.33705357142858 0  2.41238839285714 0.0314867424242493  2.47600446428572 0.0944602272727479  Z M 17.9045758928571 7.73082386363637  C 17.9681919642857 7.79379734848487  18 7.86837121212125  18 7.95454545454544  L 18 9.86363636363637  C 18 9.94981060606062  17.9681919642857 10.024384469697  17.9045758928571 10.0873579545454  C 17.8409598214285 10.1503314393939  17.765625 10.1818181818182  17.6785714285714 10  L 4.17857142857142 10  C 4.09151785714283 10.1818181818182  4.01618303571428 10.1503314393939  3.95256696428572 10.0873579545454  C 3.88895089285714 10.024384469697  3.85714285714283 9.94981060606062  3.85714285714283 9.86363636363637  L 3.85714285714283 7.95454545454544  C 3.85714285714283 7.86837121212125  3.88895089285714 7.79379734848487  3.95256696428572 7.73082386363637  C 4.01618303571428 7.66785037878788  4.09151785714283 7.63636363636363  4.17857142857142 7.63636363636363  L 17.6785714285714 7.63636363636363  C 17.765625 7.63636363636363  17.8409598214285 7.66785037878788  17.9045758928571 7.73082386363637  Z M 17.9045758928571 3.91264204545456  C 17.9681919642857 3.975615530303  18 4.05018939393938  18 4.13636363636363  L 18 6.04545454545456  C 18 6.13162878787875  17.9681919642857 6.20620265151513  17.9045758928571 6.26917613636363  C 17.8409598214285 6.33214962121212  17.765625 6.36363636363637  17.6785714285714 6.36363636363637  L 4.17857142857142 6.36363636363637  C 4.09151785714283 6.36363636363637  4.01618303571428 6.33214962121212  3.95256696428572 6.26917613636363  C 3.88895089285714 6.20620265151513  3.85714285714283 6.13162878787875  3.85714285714283 6.04545454545456  L 3.85714285714283 4.13636363636363  C 3.85714285714283 4.05018939393938  3.88895089285714 3.975615530303  3.95256696428572 3.91264204545456  C 4.01618303571428 3.84966856060606  4.09151785714283 3.81818181818181  4.17857142857142 4  L 17.6785714285714 4  C 17.765625 3.81818181818181  17.8409598214285 3.84966856060606  17.9045758928571 3.91264204545456  Z M 17.9045758928571 0.0944602272727479  C 17.9681919642857 0.157433712121247  18 0.232007575757621  18 0.318181818181813  L 18 2.22727272727275  C 18 2.31344696969694  17.9681919642857 2.38802083333337  17.9045758928571 2.45099431818181  C 17.8409598214285 2.51396780303031  17.765625 2.54545454545456  17.6785714285714 2.54545454545456  L 4.17857142857142 2.54545454545456  C 4.09151785714283 2.54545454545456  4.01618303571428 2.51396780303031  3.95256696428572 2.45099431818181  C 3.88895089285714 2.38802083333337  3.85714285714283 2.31344696969694  3.85714285714283 2.22727272727275  L 3.85714285714283 0.318181818181813  C 3.85714285714283 0.232007575757621  3.88895089285714 0.157433712121247  3.95256696428572 0.0944602272727479  C 4.01618303571428 0.0314867424242493  4.09151785714283 0  4.17857142857142 0  L 17.6785714285714 0  C 17.765625 0  17.8409598214285 0.0314867424242493  17.9045758928571 0.0944602272727479  Z " fill-rule="nonzero" fill="#797979" stroke="none" transform="matrix(1 0 0 1 17 164 )" />
  </g>
</svg>