<?xml version="1.0" standalone="no"?><!DOCTYPE svg PUBLIC "-//W3C//DTD SVG 1.1//EN" "http://www.w3.org/Graphics/SVG/1.1/DTD/svg11.dtd"><svg xmlns:xlink="http://www.w3.org/1999/xlink" xmlns="http://www.w3.org/2000/svg" version="1.1" width="200" height="200" viewBox="0 0 200 200"><defs><style type="text/css"><![CDATA[
@font-face {
  font-family: "ifont";
  src: url("//at.alicdn.com/t/font_1442373896_4754455.eot?#iefix") format("embedded-opentype"), url("//at.alicdn.com/t/font_1442373896_4754455.woff") format("woff"), url("//at.alicdn.com/t/font_1442373896_4754455.ttf") format("truetype"), url("//at.alicdn.com/t/font_1442373896_4754455.svg#ifont") format("svg");
}

]]></style></defs><g class="transform-group"><g transform="scale(0.1953125, 0.1953125)"><path d="M918.204224 929.570327c0 7.856945-2.975896 15.691377-8.97374 21.666462-5.995797 5.974062-13.832597 8.973372-21.66735 8.973372L136.413329 960.210162c-7.835777 0-15.67053-2.99931-21.64586-8.973372-5.99682-5.975085-8.97374-13.809517-8.97374-21.666462L105.793729 187.159634c0-7.856945 2.97692-15.691377 8.97374-21.666462 5.97533-5.975085 13.810083-8.973372 21.64586-8.973372l94.350651 0 0 30.901801c0 51.232848 41.97774 92.749404 93.738688 92.749404 51.782439 0 93.737665-41.516556 93.737665-92.749404l0-30.901801 187.497844 0 0 30.901801c0 51.232848 41.955227 92.749404 93.738688 92.749404 51.759925 0 93.715151-41.516556 93.715151-92.749404l0-30.901801 94.373164 0c7.834753 0 15.67053 2.998287 21.66735 8.973372 5.99682 5.974062 8.97374 13.809517 8.97374 21.666462L918.206271 929.570327 918.204224 929.570327zM855.720634 372.898919 168.278343 372.898919l0 525.485129 687.441268 0L855.719611 372.898919 855.720634 372.898919zM324.501644 527.451924l-93.738688 0L230.762956 434.724009l93.738688 0L324.501644 527.451924zM324.501644 682.004929l-93.738688 0 0-92.727914 93.738688 0L324.501644 682.004929zM324.501644 836.579423l-93.738688 0 0-92.749404 93.738688 0L324.501644 836.579423zM480.746437 527.451924l-93.760179 0L386.986258 434.724009l93.760179 0L480.746437 527.451924zM480.746437 682.004929l-93.760179 0 0-92.727914 93.760179 0L480.746437 682.004929zM480.746437 836.579423l-93.760179 0 0-92.749404 93.760179 0L480.746437 836.579423zM636.968715 527.451924l-93.738688 0L543.230026 434.724009l93.738688 0L636.968715 527.451924zM636.968715 682.004929l-93.738688 0 0-92.727914 93.738688 0L636.968715 682.004929zM636.968715 836.579423l-93.738688 0 0-92.749404 93.738688 0L636.968715 836.579423zM793.190993 527.451924l-93.715151 0L699.475842 434.724009l93.715151 0L793.190993 527.451924zM793.190993 682.004929l-93.715151 0 0-92.727914 93.715151 0L793.190993 682.004929zM793.190993 836.579423l-93.715151 0 0-92.749404 93.715151 0L793.190993 836.579423zM698.490358 249.247714c-33.966971 0-61.521643-27.246551-61.521643-60.84067l0-63.750953c0-33.615609 27.554672-60.863183 61.521643-60.863183s61.521643 27.246551 61.521643 60.863183l0 63.750953C760.012 222.00014 732.458352 249.247714 698.490358 249.247714zM323.538674 249.247714c-33.966971 0-61.521643-27.246551-61.521643-60.84067l0-63.750953c0-33.615609 27.554672-60.863183 61.521643-60.863183 33.966971 0 61.521643 27.246551 61.521643 60.863183l0 63.750953C385.060317 222.00014 357.505645 249.247714 323.538674 249.247714z" fill="#272636"></path></g></g></svg>