<?xml version="1.0" encoding="utf-8"?>
<svg version="1.1" xmlns:xlink="http://www.w3.org/1999/xlink" width="33px" height="19px" xmlns="http://www.w3.org/2000/svg">
  <g transform="matrix(1 0 0 1 -314 -544 )">
    <path d="M 32.6693386773547 15.5395189003436  C 32.8897795591182 15.7571592210767  33 16.0074455899198  33 16.2903780068729  C 33 16.5733104238259  32.8897795591182 16.823596792669  32.6693386773547 17.0412371134021  L 31.0160320641283 18.6735395189003  C 30.7955911823647 18.8911798396334  30.5420841683367 19  30.2555110220441 19  C 29.9689378757515 19  29.7154308617234 18.8911798396334  29.4949899799599 18.6735395189003  L 16.5 5.84364261168385  L 3.50501002004008 18.6735395189003  C 3.28456913827655 18.8911798396334  3.0310621242485 19  2.74448897795591 19  C 2.45791583166333 19  2.20440881763527 18.8911798396334  1.98396793587174 18.6735395189003  L 0.330661322645291 17.0412371134021  C 0.110220440881764 16.823596792669  0 16.5733104238259  0 16.2903780068729  C 0 16.0074455899198  0.110220440881764 15.7571592210767  0.330661322645291 15.5395189003436  L 15.7394789579158 0.326460481099657  C 15.9599198396794 0.10882016036655  16.2134268537074 0  16.5 0  C 16.7865731462926 0  17.0400801603206 0.10882016036655  17.2605210420842 0.326460481099657  L 32.6693386773547 15.5395189003436  Z " fill-rule="nonzero" fill="#333333" stroke="none" transform="matrix(1 0 0 1 314 544 )" />
  </g>
</svg>