<?xml version="1.0" encoding="utf-8"?>
<svg version="1.1" xmlns:xlink="http://www.w3.org/1999/xlink" width="33px" height="18px" xmlns="http://www.w3.org/2000/svg">
  <g transform="matrix(1 0 0 1 -314 -106 )">
    <path d="M 32.6693386773547 1.85567010309278  C 32.8897795591182 2.06185567010309  33 2.29896907216495  33 2.56701030927835  C 33 2.83505154639175  32.8897795591182 3.07216494845361  32.6693386773547 3.27835051546392  L 17.2605210420842 17.6907216494845  C 17.0400801603206 17.8969072164948  16.7865731462926 18  16.5 18  C 16.2134268537074 18  15.9599198396794 17.8969072164948  15.7394789579158 17.6907216494845  L 0.330661322645291 3.27835051546392  C 0.110220440881764 3.07216494845361  0 2.83505154639175  0 2.56701030927835  C 0 2.29896907216495  0.110220440881764 2.06185567010309  0.330661322645291 1.85567010309278  L 1.98396793587174 0.309278350515465  C 2.20440881763527 0.103092783505152  2.45791583166333 0  2.74448897795591 0  C 3.0310621242485 0  3.28456913827655 0.103092783505152  3.50501002004008 0.309278350515465  L 16.5 12.4639175257732  L 29.4949899799599 0.309278350515465  C 29.7154308617234 0.103092783505152  29.9689378757515 0  30.2555110220441 0  C 30.5420841683367 0  30.7955911823647 0.103092783505152  31.0160320641283 0.309278350515465  L 32.6693386773547 1.85567010309278  Z " fill-rule="nonzero" fill="#333333" stroke="none" transform="matrix(1 0 0 1 314 106 )" />
  </g>
</svg>