<?xml version="1.0" encoding="utf-8"?>
<svg version="1.1" xmlns:xlink="http://www.w3.org/1999/xlink" width="10px" height="10px" xmlns="http://www.w3.org/2000/svg">
  <g transform="matrix(1 0 0 1 -1395 -660 )">
    <path d="M 1400 660  C 1402.8 660  1405 662.2  1405 665  C 1405 667.8  1402.8 670  1400 670  C 1397.2 670  1395 667.8  1395 665  C 1395 662.2  1397.2 660  1400 660  Z " fill-rule="nonzero" fill="#169bd5" stroke="none" />
    <path d="M 1400 660.5  C 1402.52 660.5  1404.5 662.48  1404.5 665  C 1404.5 667.52  1402.52 669.5  1400 669.5  C 1397.48 669.5  1395.5 667.52  1395.5 665  C 1395.5 662.48  1397.48 660.5  1400 660.5  Z " stroke-width="1" stroke="#169bd5" fill="none" />
  </g>
</svg>