<?xml version="1.0" encoding="utf-8"?>
<svg version="1.1" xmlns:xlink="http://www.w3.org/1999/xlink" width="27px" height="26px" xmlns="http://www.w3.org/2000/svg">
  <g transform="matrix(1 0 0 1 -1386 -609 )">
    <path d="M 1386 609  L 1413 609  L 1413 635  L 1386 635  L 1386 609  " fill-rule="nonzero" fill="#cccccc" stroke="none" />
    <path d="M 1388 611  L 1411 611  L 1411 633  L 1388 633  L 1388 611  " fill-rule="nonzero" fill="#ffffff" stroke="none" />
    <path d="M 1401.99 616.8  C 1400.898 616.8  1400.04 615.942  1400.04 614.85  C 1400.04 613.758  1400.898 612.9  1401.99 612.9  C 1403.082 612.9  1403.94 613.758  1403.94 614.85  C 1403.94 615.942  1403.082 616.8  1401.99 616.8  " fill-rule="nonzero" fill="#cccccc" stroke="none" />
    <path d="M 1389 633  L 1389 621.45  L 1394.5 616.2  L 1402.2 620.866666666667  L 1406.6 619.35  L 1411 620.866666666667  L 1411 633  L 1389 633  " fill-rule="nonzero" fill="#169bd5" stroke="none" />
  </g>
</svg>