<?xml version="1.0" encoding="utf-8"?>
<svg version="1.1" xmlns:xlink="http://www.w3.org/1999/xlink" width="75px" height="68px" xmlns="http://www.w3.org/2000/svg">
  <g transform="matrix(1 0 0 1 -1060 -273 )">
    <path d="M 74 51.5998830464073  C 74.6825099800404 50.3687827470062  73.6566759060006 49.3839025074849  72.3741969186629 49.3839025074849  L 64.4233408183633 49.3839025074849  C 63.1409446731539 49.3839025074849  62.1150277569863 50.368703218563  62.1150277569863 51.5998830464073  L 62.1150277569863 55.0469638847308  L 58.2678393213574 55.0469638847308  C 56.7289639471061 55.0469638847308  55.7030470309381 56.0317645958085  55.7030470309381 57.5091644835329  L 55.7030470309381 65.1419863398205  C 55.7030470309381 66.3730866392216  56.7288811049778 67.3579668787424  58.0113600923156 67.3579668787424  L 72.3741969186629 67.6041869386227  C 73.6565930638723 67.6041869386227  74.6825099800404 66.619386227545  74 65.3882063997007  L 74 51.5998830464073  Z M 41.5966894336326 66.1269461077845  C 41.5966894336326 67.1117468188622  42.3661271207588 67.850486526946  43.3920440369263 67.850486526946  L 47.2392324725552 67.850486526946  C 48.2650665465944 67.850486526946  49.0345870758484 67.1118263473054  49.0345870758484 66.1269461077845  L 49.0345870758484 62.4336452095808  C 49.0345870758484 61.4488444985031  48.2651493887227 60.7101047904193  47.2392324725552 60.7101047904193  L 43.3920440369263 60.7101047904193  C 42.3662099628866 60.7101047904193  41.5966894336326 61.44876497006  41.5966894336326 62.4336452095808  L 41.5966894336326 66.1269461077845  Z M 69.8093217861157 36.5805389221555  C 68.7834877120759 36.5805389221555  67.7574879537801 37.3191991017966  67.7574879537801 38.5502994011977  L 67.7574879537801 41.5048605913175  C 67.7574879537801 42.4896613023952  68.7833220278198 43.4746210703593  69.8093217861157 43.4746210703593  L 72.8869896924901 43.4746210703593  C 73.9128237665298 43.4746210703593  74.9388235248257 42.4898203592816  74.9388235248257 41.5048605913175  L 74.9388235248257 38.5502994011977  C 74.9388235248257 37.56549869012  73.9129894507859 36.5805389221555  72.8869896924901 36.5805389221555  L 69.8093217861157 36.5805389221555  Z M 40 48.6453218562874  C 40.827251746507 49.6301225673651  41.5966894336326 50.3688622754489  42.6226063498007 50  L 53.6512131986029 50  C 54.6770472726422 50.3688622754489  55.4465678018962 49.6302020958083  55 48.6453218562874  L 55 38.0578592814372  C 55.4465678018962 37.0730585703591  54.6771301147705 36.3343188622753  53.6512131986029 36  L 42.6226063498007 36  C 41.5967722757609 36.3343188622753  40.827251746507 37.0729790419164  40 38.0578592814372  L 40 48.6453218562874  Z M 52 21  L 52 10  L 63 10  L 63 21  L 52 21  Z M 40 24.5158355164672  C 40.3143761305515 28.4553564745511  43.6486061080965 31.4099176646705  47.4957117015971 32  L 67.5010087247382 32  C 71.6046763894089 31.4099176646705  74.6823442957838 28.2090568862277  74 24.5158355164672  L 74 7.03421126497005  C 74.6823442957838 3.09469030688615  71.3481143182387 0.140129116766275  67.5010087247382 1  L 47.4957117015971 1  C 43.3920440369263 0.140129116766275  40.3143761305515 3.34098989520953  40 7.03421126497005  L 40 24.5158355164672  Z M 44 24.5158355164672  L 44 7.03421126497005  C 43.9050024950101 5.06445078592833  45.4438778692615 3.58713042664658  47.4957117015971 4  L 67.5010087247382 4  C 69.5528425570738 3.58713042664658  71.0917179313251 5.06445078592833  71 7.03421126497005  L 71 24.5158355164672  C 71.0917179313251 26.4855959955089  69.5528425570738 27.9629163547907  67.5010087247382 28  L 47.4957117015971 28  C 45.4438778692615 27.9629163547907  43.9050024950101 26.4855959955089  44 24.5158355164672  Z M 13 56  L 13 46.6754818488025  L 23 46.6754818488025  L 23 56  L 13 56  Z M 34 43.9670611901197  C 34.1587917914173 40.0275402320358  30.8246446560005 37.0729790419164  26.9773733782434 37  L 7.48503481318608 37  C 3.63784637755723 37.0729790419164  0.560095629054539 40.0275402320358  1 43.9670611901197  L 1 60.9562453218564  C 0.560095629054539 64.6495462200601  3.63776353542894 67.8503274700597  7.48503481318608 67  L 26.9773733782434 67  C 30.8245618138722 67.8503274700597  33.9023125623754 64.8957662799403  34 60.9562453218564  L 34 43.9670611901197  Z M 31 43.7209206586826  L 31 60.7101047904193  C 30.5681654269587 62.6798652694611  29.0292900527073 64.1571856287424  26.9774562203717 64  L 7.48511765531437 64  C 5.43328382297924 64.1571856287424  3.89440844872742 62.6798652694611  4 60.7101047904193  L 4 43.7209206586826  C 3.89440844872742 41.7511601796409  5.43328382297924 40.2738398203592  7.48511765531437 40  L 26.9774562203717 40  C 29.0292900527073 40.2738398203592  30.5681654269587 41.7511601796409  31 43.7209206586826  Z M 13 21  L 13 9.9888519835331  L 23 9.9888519835331  L 23 21  L 13 21  Z M 35 7.03413173652689  C 34.6716674073728 3.3408308383232  31.5939995009979 0.140049588323109  27.4903318363277 1  L 7.48503481318608 1  C 3.38136714851534 0.140049588323109  0.303699242140472 3.34091036676637  1 7.03413173652689  L 1 24.515755988024  C 0.303699242140472 28.4552769461079  3.63792921968553 31.4098381362273  7.48503481318608 32  L 27.4903318363277 32  C 31.5939995009979 31.4098381362273  34.6716674073728 28.2089773577845  35 24.515755988024  L 35 7.03413173652689  Z M 31 7.03421126497005  L 31 24.5158355164672  C 31.0810410429141 26.4855959955089  29.5421656686628 27.9629163547907  27.4903318363277 28  L 7.48503481318608 28  C 5.43320098085095 27.9629163547907  3.89432560659913 26.4855959955089  4 24.5158355164672  L 4 7.03421126497005  C 3.89432560659913 5.06445078592833  5.43320098085095 3.58713042664658  7.48503481318608 4  L 27.4903318363277 4  C 29.5421656686628 3.58713042664658  31.0810410429141 5.06445078592833  31 7.03421126497005  Z " fill-rule="nonzero" fill="#000000" stroke="none" transform="matrix(1 0 0 1 1060 273 )" />
  </g>
</svg>