<?xml version="1.0" encoding="utf-8"?>
<svg version="1.1" xmlns:xlink="http://www.w3.org/1999/xlink" width="19px" height="17px" xmlns="http://www.w3.org/2000/svg">
  <g transform="matrix(1 0 0 1 -259 -803 )">
    <path d="M 18.639568339473 8.45959582337053  C 18.6328343099085 8.7441085688281  18.5604434929883 8.94612945330357  18.3988267855239 9.10101213139507  C 18.3702071603002 9.12963175661832  18.3314864910135 9.14141630802453  18.2994998505346 9.16498541121649  L 10.5166452766716 16.6751117910268  C 10.1769096678327 16.9974927747971  9.64425557876166 16.9974927748805  9.30451996982083 16.6751117912165  C 9.1444667286305 16.5226006380097  9.05388777044209 16.311173716147  9.05388777044209 16.0900929800614  C 9.05388777044209 15.8690122439758  9.1444667286305 15.6575853221131  9.30451996982083 15.5050741689063  L 15.6934304408569 9.34175368515628  L 0.994727588829846 9.34175368515628  C 0.52115815263096 9.35020170986076  0.130199070186791 8.97355519492714  0.1209872637628 8.5  C 0.130201707015658 8.02711303269086  0.520126958945184 7.65073730676568  0.993044081293192 7.65824631484372  L 15.6900634261692 7.65824631484372  L 9.30620347716467 1.49660933862725  C 9.14615023585429 1.344098185409  9.05557127758948 1.13267126346346  9.05557127758948 0.911590527282385  C 9.05557127758948 0.690509791101249  9.14615023585429 0.479082869155718  9.30620347716467 0.326571715937519  C 9.64559856308551 0.00333830078159281  10.1789336980946 0.00333830078159281  10.5183287840155 0.326571715937519  L 18.2994998505346 7.83501458878351  C 18.333169997979 7.85858369197547  18.3702071599218 7.87036824357142  18.4005102928677 7.89898786860493  C 18.5510734763193 8.04697486674735  18.6370076842031 8.24849663607915  18.639568339473 8.45959582337053  Z " fill-rule="nonzero" fill="#000000" stroke="none" transform="matrix(1 0 0 1 259 803 )" />
  </g>
</svg>