<?xml version="1.0" encoding="utf-8"?>
<svg version="1.1" xmlns:xlink="http://www.w3.org/1999/xlink" width="15px" height="18px" xmlns="http://www.w3.org/2000/svg">
  <g transform="matrix(1 0 0 1 -92 -91 )">
    <path d="M 0.681818181818182 0  L 14.3181818181818 0  C 14.5028409090909 0  14.6626420454545 0.063616071428573  14.7975852272727 0.190848214285715  C 14.9325284090909 0.318080357142855  15 0.468749999999999  15 0.642857142857143  L 15 17.3571428571429  C 15 17.53125  14.9325284090909 17.6819196428571  14.7975852272727 17.8091517857143  C 14.6626420454545 17.9363839285714  14.5028409090909 18  14.3181818181818 18  L 0.681818181818182 18  C 0.497159090909091 18  0.337357954545455 17.9363839285714  0.202414772727273 17.8091517857143  C 0.0674715909090909 17.6819196428571  0 17.53125  0 17.3571428571429  L 0 0.642857142857143  C 0 0.468749999999999  0.0674715909090909 0.318080357142855  0.202414772727273 0.190848214285715  C 0.337357954545455 0.063616071428573  0.497159090909091 0  0.681818181818182 0  Z M 5.55042613636364 2.66183035714286  C 5.48650568181818 2.72209821428571  5.45454545454546 2.79910714285714  5.45454545454546 2.89285714285714  L 5.45454545454546 3.53571428571429  C 5.45454545454546 3.62946428571429  5.48650568181818 3.70647321428571  5.55042613636364 3.76674107142857  C 5.61434659090909 3.82700892857143  5.69602272727273 3.85714285714286  5.79545454545455 3.85714285714286  L 6.47727272727273 3.85714285714286  C 6.57670454545455 3.85714285714286  6.65838068181818 3.82700892857143  6.72230113636364 3.76674107142857  C 6.78622159090909 3.70647321428571  6.81818181818182 3.62946428571429  6.81818181818182 3.53571428571429  L 6.81818181818182 2.89285714285714  C 6.81818181818182 2.79910714285714  6.78622159090909 2.72209821428571  6.72230113636364 2.66183035714286  C 6.65838068181818 2.6015625  6.57670454545455 2.57142857142857  6.47727272727273 2.57142857142857  L 5.79545454545455 2.57142857142857  C 5.69602272727273 2.57142857142857  5.61434659090909 2.6015625  5.55042613636364 2.66183035714286  Z M 5.55042613636364 5.23325892857143  C 5.48650568181818 5.29352678571428  5.45454545454546 5.37053571428571  5.45454545454546 5.46428571428572  L 5.45454545454546 6.10714285714286  C 5.45454545454546 6.20089285714286  5.48650568181818 6.27790178571428  5.55042613636364 6.33816964285714  C 5.61434659090909 6.3984375  5.69602272727273 6.42857142857143  5.79545454545455 6.42857142857143  L 6.47727272727273 6.42857142857143  C 6.57670454545455 6.42857142857143  6.65838068181818 6.3984375  6.72230113636364 6.33816964285714  C 6.78622159090909 6.27790178571428  6.81818181818182 6.20089285714286  6.81818181818182 6.10714285714286  L 6.81818181818182 5.46428571428572  C 6.81818181818182 5.37053571428571  6.78622159090909 5.29352678571428  6.72230113636364 5.23325892857143  C 6.65838068181818 5.17299107142857  6.57670454545455 5.14285714285714  6.47727272727273 5.14285714285714  L 5.79545454545455 5.14285714285714  C 5.69602272727273 5.14285714285714  5.61434659090909 5.17299107142857  5.55042613636364 5.23325892857143  Z M 5.55042613636364 7.8046875  C 5.48650568181818 7.86495535714286  5.45454545454546 7.94196428571428  5.45454545454546 8.03571428571428  L 5.45454545454546 8.67857142857143  C 5.45454545454546 8.77232142857143  5.48650568181818 8.84933035714286  5.55042613636364 8.90959821428572  C 5.61434659090909 8.96986607142857  5.69602272727273 9  5.79545454545455 9  L 6.47727272727273 9  C 6.57670454545455 9  6.65838068181818 8.96986607142857  6.72230113636364 8.90959821428572  C 6.78622159090909 8.84933035714286  6.81818181818182 8.77232142857143  6.81818181818182 8.67857142857143  L 6.81818181818182 8.03571428571428  C 6.81818181818182 7.94196428571428  6.78622159090909 7.86495535714286  6.72230113636364 7.8046875  C 6.65838068181818 7.74441964285714  6.57670454545455 7.71428571428572  6.47727272727273 7.71428571428572  L 5.79545454545455 7.71428571428572  C 5.69602272727273 7.71428571428572  5.61434659090909 7.74441964285714  5.55042613636364 7.8046875  Z M 5.55042613636364 10.3761160714286  C 5.48650568181818 10.4363839285714  5.45454545454546 10.5133928571429  5.45454545454546 10.6071428571429  L 5.45454545454546 11.25  C 5.45454545454546 11.34375  5.48650568181818 11.4207589285714  5.55042613636364 11.4810267857143  C 5.61434659090909 11.5412946428571  5.69602272727273 11.5714285714286  5.79545454545455 11.5714285714286  L 6.47727272727273 11.5714285714286  C 6.57670454545455 11.5714285714286  6.65838068181818 11.5412946428571  6.72230113636364 11.4810267857143  C 6.78622159090909 11.4207589285714  6.81818181818182 11.34375  6.81818181818182 11.25  L 6.81818181818182 10.6071428571429  C 6.81818181818182 10.5133928571429  6.78622159090909 10.4363839285714  6.72230113636364 10.3761160714286  C 6.65838068181818 10.3158482142857  6.57670454545455 10.2857142857143  6.47727272727273 10.2857142857143  L 5.79545454545455 10.2857142857143  C 5.69602272727273 10.2857142857143  5.61434659090909 10.3158482142857  5.55042613636364 10.3761160714286  Z M 3.99502840909091 14.0524553571429  C 4.05894886363636 13.9921875  4.09090909090909 13.9151785714286  4.09090909090909 13.8214285714286  L 4.09090909090909 13.1785714285714  C 4.09090909090909 13.0848214285714  4.05894886363636 13.0078125  3.99502840909091 12.9475446428571  C 3.93110795454545 12.8872767857143  3.84943181818182 12.8571428571429  3.75 12.8571428571429  L 3.06818181818182 12.8571428571429  C 2.96875 12.8571428571429  2.88707386363636 12.8872767857143  2.82315340909091 12.9475446428571  C 2.75923295454545 13.0078125  2.72727272727273 13.0848214285714  2.72727272727273 13.1785714285714  L 2.72727272727273 13.8214285714286  C 2.72727272727273 13.9151785714286  2.75923295454545 13.9921875  2.82315340909091 14.0524553571429  C 2.88707386363636 14.1127232142857  2.96875 14.1428571428571  3.06818181818182 14.1428571428571  L 3.75 14.1428571428571  C 3.84943181818182 14.1428571428571  3.93110795454545 14.1127232142857  3.99502840909091 14.0524553571429  Z M 3.99502840909091 11.4810267857143  C 4.05894886363636 11.4207589285714  4.09090909090909 11.34375  4.09090909090909 11.25  L 4.09090909090909 10.6071428571429  C 4.09090909090909 10.5133928571429  4.05894886363636 10.4363839285714  3.99502840909091 10.3761160714286  C 3.93110795454545 10.3158482142857  3.84943181818182 10.2857142857143  3.75 10.2857142857143  L 3.06818181818182 10.2857142857143  C 2.96875 10.2857142857143  2.88707386363636 10.3158482142857  2.82315340909091 10.3761160714286  C 2.75923295454545 10.4363839285714  2.72727272727273 10.5133928571429  2.72727272727273 10.6071428571429  L 2.72727272727273 11.25  C 2.72727272727273 11.34375  2.75923295454545 11.4207589285714  2.82315340909091 11.4810267857143  C 2.88707386363636 11.5412946428571  2.96875 11.5714285714286  3.06818181818182 11.5714285714286  L 3.75 11.5714285714286  C 3.84943181818182 11.5714285714286  3.93110795454545 11.5412946428571  3.99502840909091 11.4810267857143  Z M 3.99502840909091 8.90959821428572  C 4.05894886363636 8.84933035714286  4.09090909090909 8.77232142857143  4.09090909090909 8.67857142857143  L 4.09090909090909 8.03571428571428  C 4.09090909090909 7.94196428571428  4.05894886363636 7.86495535714286  3.99502840909091 7.8046875  C 3.93110795454545 7.74441964285714  3.84943181818182 7.71428571428572  3.75 7.71428571428572  L 3.06818181818182 7.71428571428572  C 2.96875 7.71428571428572  2.88707386363636 7.74441964285714  2.82315340909091 7.8046875  C 2.75923295454545 7.86495535714286  2.72727272727273 7.94196428571428  2.72727272727273 8.03571428571428  L 2.72727272727273 8.67857142857143  C 2.72727272727273 8.77232142857143  2.75923295454545 8.84933035714286  2.82315340909091 8.90959821428572  C 2.88707386363636 8.96986607142857  2.96875 9  3.06818181818182 9  L 3.75 9  C 3.84943181818182 9  3.93110795454545 8.96986607142857  3.99502840909091 8.90959821428572  Z M 3.99502840909091 6.33816964285714  C 4.05894886363636 6.27790178571428  4.09090909090909 6.20089285714286  4.09090909090909 6.10714285714286  L 4.09090909090909 5.46428571428572  C 4.09090909090909 5.37053571428571  4.05894886363636 5.29352678571428  3.99502840909091 5.23325892857143  C 3.93110795454545 5.17299107142857  3.84943181818182 5.14285714285714  3.75 5.14285714285714  L 3.06818181818182 5.14285714285714  C 2.96875 5.14285714285714  2.88707386363636 5.17299107142857  2.82315340909091 5.23325892857143  C 2.75923295454545 5.29352678571428  2.72727272727273 5.37053571428571  2.72727272727273 5.46428571428572  L 2.72727272727273 6.10714285714286  C 2.72727272727273 6.20089285714286  2.75923295454545 6.27790178571428  2.82315340909091 6.33816964285714  C 2.88707386363636 6.3984375  2.96875 6.42857142857143  3.06818181818182 6.42857142857143  L 3.75 6.42857142857143  C 3.84943181818182 6.42857142857143  3.93110795454545 6.3984375  3.99502840909091 6.33816964285714  Z M 3.99502840909091 3.76674107142857  C 4.05894886363636 3.70647321428571  4.09090909090909 3.62946428571429  4.09090909090909 3.53571428571429  L 4.09090909090909 2.89285714285714  C 4.09090909090909 2.79910714285714  4.05894886363636 2.72209821428571  3.99502840909091 2.66183035714286  C 3.93110795454545 2.6015625  3.84943181818182 2.57142857142857  3.75 2.57142857142857  L 3.06818181818182 2.57142857142857  C 2.96875 2.57142857142857  2.88707386363636 2.6015625  2.82315340909091 2.66183035714286  C 2.75923295454545 2.72209821428571  2.72727272727273 2.79910714285714  2.72727272727273 2.89285714285714  L 2.72727272727273 3.53571428571429  C 2.72727272727273 3.62946428571429  2.75923295454545 3.70647321428571  2.82315340909091 3.76674107142857  C 2.88707386363636 3.82700892857143  2.96875 3.85714285714286  3.06818181818182 3.85714285714286  L 3.75 3.85714285714286  C 3.84943181818182 3.85714285714286  3.93110795454545 3.82700892857143  3.99502840909091 3.76674107142857  Z M 9.44957386363636 16.6238839285714  C 9.51349431818182 16.5636160714286  9.54545454545455 16.4866071428571  9.54545454545455 16.3928571428571  L 9.54545454545455 14.4642857142857  C 9.54545454545455 14.3705357142857  9.51349431818182 14.2935267857143  9.44957386363636 14.2332589285714  C 9.38565340909091 14.1729910714286  9.30397727272727 14.1428571428571  9.20454545454546 14.1428571428571  L 5.79545454545455 14.1428571428571  C 5.69602272727273 14.1428571428571  5.61434659090909 14.1729910714286  5.55042613636364 14.2332589285714  C 5.48650568181818 14.2935267857143  5.45454545454546 14.3705357142857  5.45454545454546 14.4642857142857  L 5.45454545454546 16.3928571428571  C 5.45454545454546 16.4866071428571  5.48650568181818 16.5636160714286  5.55042613636364 16.6238839285714  C 5.61434659090909 16.6841517857143  5.69602272727273 16.7142857142857  5.79545454545455 16.7142857142857  L 9.20454545454546 16.7142857142857  C 9.30397727272727 16.7142857142857  9.38565340909091 16.6841517857143  9.44957386363636 16.6238839285714  Z M 9.44957386363636 11.4810267857143  C 9.51349431818182 11.4207589285714  9.54545454545455 11.34375  9.54545454545455 11.25  L 9.54545454545455 10.6071428571429  C 9.54545454545455 10.5133928571429  9.51349431818182 10.4363839285714  9.44957386363636 10.3761160714286  C 9.38565340909091 10.3158482142857  9.30397727272727 10.2857142857143  9.20454545454546 10.2857142857143  L 8.52272727272727 10.2857142857143  C 8.42329545454546 10.2857142857143  8.34161931818182 10.3158482142857  8.27769886363636 10.3761160714286  C 8.21377840909091 10.4363839285714  8.18181818181818 10.5133928571429  8.18181818181818 10.6071428571429  L 8.18181818181818 11.25  C 8.18181818181818 11.34375  8.21377840909091 11.4207589285714  8.27769886363636 11.4810267857143  C 8.34161931818182 11.5412946428571  8.42329545454546 11.5714285714286  8.52272727272727 11.5714285714286  L 9.20454545454546 11.5714285714286  C 9.30397727272727 11.5714285714286  9.38565340909091 11.5412946428571  9.44957386363636 11.4810267857143  Z M 9.44957386363636 8.90959821428572  C 9.51349431818182 8.84933035714286  9.54545454545455 8.77232142857143  9.54545454545455 8.67857142857143  L 9.54545454545455 8.03571428571428  C 9.54545454545455 7.94196428571428  9.51349431818182 7.86495535714286  9.44957386363636 7.8046875  C 9.38565340909091 7.74441964285714  9.30397727272727 7.71428571428572  9.20454545454546 7.71428571428572  L 8.52272727272727 7.71428571428572  C 8.42329545454546 7.71428571428572  8.34161931818182 7.74441964285714  8.27769886363636 7.8046875  C 8.21377840909091 7.86495535714286  8.18181818181818 7.94196428571428  8.18181818181818 8.03571428571428  L 8.18181818181818 8.67857142857143  C 8.18181818181818 8.77232142857143  8.21377840909091 8.84933035714286  8.27769886363636 8.90959821428572  C 8.34161931818182 8.96986607142857  8.42329545454546 9  8.52272727272727 9  L 9.20454545454546 9  C 9.30397727272727 9  9.38565340909091 8.96986607142857  9.44957386363636 8.90959821428572  Z M 9.44957386363636 6.33816964285714  C 9.51349431818182 6.27790178571428  9.54545454545455 6.20089285714286  9.54545454545455 6.10714285714286  L 9.54545454545455 5.46428571428572  C 9.54545454545455 5.37053571428571  9.51349431818182 5.29352678571428  9.44957386363636 5.23325892857143  C 9.38565340909091 5.17299107142857  9.30397727272727 5.14285714285714  9.20454545454546 5.14285714285714  L 8.52272727272727 5.14285714285714  C 8.42329545454546 5.14285714285714  8.34161931818182 5.17299107142857  8.27769886363636 5.23325892857143  C 8.21377840909091 5.29352678571428  8.18181818181818 5.37053571428571  8.18181818181818 5.46428571428572  L 8.18181818181818 6.10714285714286  C 8.18181818181818 6.20089285714286  8.21377840909091 6.27790178571428  8.27769886363636 6.33816964285714  C 8.34161931818182 6.3984375  8.42329545454546 6.42857142857143  8.52272727272727 6.42857142857143  L 9.20454545454546 6.42857142857143  C 9.30397727272727 6.42857142857143  9.38565340909091 6.3984375  9.44957386363636 6.33816964285714  Z M 9.44957386363636 3.76674107142857  C 9.51349431818182 3.70647321428571  9.54545454545455 3.62946428571429  9.54545454545455 3.53571428571429  L 9.54545454545455 2.89285714285714  C 9.54545454545455 2.79910714285714  9.51349431818182 2.72209821428571  9.44957386363636 2.66183035714286  C 9.38565340909091 2.6015625  9.30397727272727 2.57142857142857  9.20454545454546 2.57142857142857  L 8.52272727272727 2.57142857142857  C 8.42329545454546 2.57142857142857  8.34161931818182 2.6015625  8.27769886363636 2.66183035714286  C 8.21377840909091 2.72209821428571  8.18181818181818 2.79910714285714  8.18181818181818 2.89285714285714  L 8.18181818181818 3.53571428571429  C 8.18181818181818 3.62946428571429  8.21377840909091 3.70647321428571  8.27769886363636 3.76674107142857  C 8.34161931818182 3.82700892857143  8.42329545454546 3.85714285714286  8.52272727272727 3.85714285714286  L 9.20454545454546 3.85714285714286  C 9.30397727272727 3.85714285714286  9.38565340909091 3.82700892857143  9.44957386363636 3.76674107142857  Z M 12.1768465909091 14.0524553571429  C 12.2407670454545 13.9921875  12.2727272727273 13.9151785714286  12.2727272727273 13.8214285714286  L 12.2727272727273 13.1785714285714  C 12.2727272727273 13.0848214285714  12.2407670454545 13.0078125  12.1768465909091 12.9475446428571  C 12.1129261363636 12.8872767857143  12.03125 12.8571428571429  11.9318181818182 12.8571428571429  L 11.25 12.8571428571429  C 11.1505681818182 12.8571428571429  11.0688920454545 12.8872767857143  11.0049715909091 12.9475446428571  C 10.9410511363636 13.0078125  10.9090909090909 13.0848214285714  10.9090909090909 13.1785714285714  L 10.9090909090909 13.8214285714286  C 10.9090909090909 13.9151785714286  10.9410511363636 13.9921875  11.0049715909091 14.0524553571429  C 11.0688920454545 14.1127232142857  11.1505681818182 14.1428571428571  11.25 14.1428571428571  L 11.9318181818182 14.1428571428571  C 12.03125 14.1428571428571  12.1129261363636 14.1127232142857  12.1768465909091 14.0524553571429  Z M 12.1768465909091 11.4810267857143  C 12.2407670454545 11.4207589285714  12.2727272727273 11.34375  12.2727272727273 11.25  L 12.2727272727273 10.6071428571429  C 12.2727272727273 10.5133928571429  12.2407670454545 10.4363839285714  12.1768465909091 10.3761160714286  C 12.1129261363636 10.3158482142857  12.03125 10.2857142857143  11.9318181818182 10.2857142857143  L 11.25 10.2857142857143  C 11.1505681818182 10.2857142857143  11.0688920454545 10.3158482142857  11.0049715909091 10.3761160714286  C 10.9410511363636 10.4363839285714  10.9090909090909 10.5133928571429  10.9090909090909 10.6071428571429  L 10.9090909090909 11.25  C 10.9090909090909 11.34375  10.9410511363636 11.4207589285714  11.0049715909091 11.4810267857143  C 11.0688920454545 11.5412946428571  11.1505681818182 11.5714285714286  11.25 11.5714285714286  L 11.9318181818182 11.5714285714286  C 12.03125 11.5714285714286  12.1129261363636 11.5412946428571  12.1768465909091 11.4810267857143  Z M 12.1768465909091 8.90959821428572  C 12.2407670454545 8.84933035714286  12.2727272727273 8.77232142857143  12.2727272727273 8.67857142857143  L 12.2727272727273 8.03571428571428  C 12.2727272727273 7.94196428571428  12.2407670454545 7.86495535714286  12.1768465909091 7.8046875  C 12.1129261363636 7.74441964285714  12.03125 7.71428571428572  11.9318181818182 7.71428571428572  L 11.25 7.71428571428572  C 11.1505681818182 7.71428571428572  11.0688920454545 7.74441964285714  11.0049715909091 7.8046875  C 10.9410511363636 7.86495535714286  10.9090909090909 7.94196428571428  10.9090909090909 8.03571428571428  L 10.9090909090909 8.67857142857143  C 10.9090909090909 8.77232142857143  10.9410511363636 8.84933035714286  11.0049715909091 8.90959821428572  C 11.0688920454545 8.96986607142857  11.1505681818182 9  11.25 9  L 11.9318181818182 9  C 12.03125 9  12.1129261363636 8.96986607142857  12.1768465909091 8.90959821428572  Z M 12.1768465909091 6.33816964285714  C 12.2407670454545 6.27790178571428  12.2727272727273 6.20089285714286  12.2727272727273 6.10714285714286  L 12.2727272727273 5.46428571428572  C 12.2727272727273 5.37053571428571  12.2407670454545 5.29352678571428  12.1768465909091 5.23325892857143  C 12.1129261363636 5.17299107142857  12.03125 5.14285714285714  11.9318181818182 5.14285714285714  L 11.25 5.14285714285714  C 11.1505681818182 5.14285714285714  11.0688920454545 5.17299107142857  11.0049715909091 5.23325892857143  C 10.9410511363636 5.29352678571428  10.9090909090909 5.37053571428571  10.9090909090909 5.46428571428572  L 10.9090909090909 6.10714285714286  C 10.9090909090909 6.20089285714286  10.9410511363636 6.27790178571428  11.0049715909091 6.33816964285714  C 11.0688920454545 6.3984375  11.1505681818182 6.42857142857143  11.25 6.42857142857143  L 11.9318181818182 6.42857142857143  C 12.03125 6.42857142857143  12.1129261363636 6.3984375  12.1768465909091 6.33816964285714  Z M 12.1768465909091 3.76674107142857  C 12.2407670454545 3.70647321428571  12.2727272727273 3.62946428571429  12.2727272727273 3.53571428571429  L 12.2727272727273 2.89285714285714  C 12.2727272727273 2.79910714285714  12.2407670454545 2.72209821428571  12.1768465909091 2.66183035714286  C 12.1129261363636 2.6015625  12.03125 2.57142857142857  11.9318181818182 2.57142857142857  L 11.25 2.57142857142857  C 11.1505681818182 2.57142857142857  11.0688920454545 2.6015625  11.0049715909091 2.66183035714286  C 10.9410511363636 2.72209821428571  10.9090909090909 2.79910714285714  10.9090909090909 2.89285714285714  L 10.9090909090909 3.53571428571429  C 10.9090909090909 3.62946428571429  10.9410511363636 3.70647321428571  11.0049715909091 3.76674107142857  C 11.0688920454545 3.82700892857143  11.1505681818182 3.85714285714286  11.25 3.85714285714286  L 11.9318181818182 3.85714285714286  C 12.03125 3.85714285714286  12.1129261363636 3.82700892857143  12.1768465909091 3.76674107142857  Z " fill-rule="nonzero" fill="#999999" stroke="none" transform="matrix(1 0 0 1 92 91 )" />
  </g>
</svg>