<?xml version="1.0" encoding="utf-8"?>
<svg version="1.1" xmlns:xlink="http://www.w3.org/1999/xlink" width="120px" height="120px" xmlns="http://www.w3.org/2000/svg">
  <g transform="matrix(1 0 0 1 -343 -193 )">
    <path d="M 343 193  L 463 193  L 463 313  L 343 313  L 343 193  " fill-rule="nonzero" fill="#cccccc" stroke="none" />
    <path d="M 351 201  L 455 201  L 455 305  L 351 305  L 351 201  " fill-rule="nonzero" fill="#ffffff" stroke="none" />
    <path d="M 414.4 229  C 409.36 229  405.4 225.04  405.4 220  C 405.4 214.96  409.36 211  414.4 211  C 419.44 211  423.4 214.96  423.4 220  C 423.4 225.04  419.44 229  414.4 229  " fill-rule="nonzero" fill="#cccccc" stroke="none" />
    <path d="M 354 302  L 354 248.1  L 378.5 223.6  L 412.8 243.2  L 432.4 238.3  L 452 243.2  L 452 302  L 354 302  " fill-rule="nonzero" fill="#169bd5" stroke="none" />
  </g>
</svg>