<?xml version="1.0" encoding="utf-8"?>
<svg version="1.1" xmlns:xlink="http://www.w3.org/1999/xlink" width="17px" height="17px" xmlns="http://www.w3.org/2000/svg">
  <g transform="matrix(1 0 0 1 -101 -54 )">
    <path d="M 109.5 54  C 114.26 54  118 57.74  118 62.5  C 118 67.26  114.26 71  109.5 71  C 104.74 71  101 67.26  101 62.5  C 101 57.74  104.74 54  109.5 54  Z " fill-rule="nonzero" fill="#ffffff" stroke="none" />
    <path d="M 109.5 54.5  C 113.98 54.5  117.5 58.02  117.5 62.5  C 117.5 66.98  113.98 70.5  109.5 70.5  C 105.02 70.5  101.5 66.98  101.5 62.5  C 101.5 58.02  105.02 54.5  109.5 54.5  Z " stroke-width="1" stroke="#797979" fill="none" />
  </g>
</svg>