<?xml version="1.0" encoding="utf-8"?>
<svg version="1.1" xmlns:xlink="http://www.w3.org/1999/xlink" width="12px" height="12px" viewBox="382 832  12 12" xmlns="http://www.w3.org/2000/svg">
  <path d="M 388 832  C 391.36 832  394 834.64  394 838  C 394 841.36  391.36 844  388 844  C 384.64 844  382 841.36  382 838  C 382 834.64  384.64 832  388 832  Z " fill-rule="nonzero" fill="#ffffff" stroke="none" />
  <path d="M 388 832.5  C 391.08 832.5  393.5 834.92  393.5 838  C 393.5 841.08  391.08 843.5  388 843.5  C 384.92 843.5  382.5 841.08  382.5 838  C 382.5 834.92  384.92 832.5  388 832.5  Z " stroke-width="1" stroke="#797979" fill="none" />
  <path d="M 388 841  C 386.32 841  385 839.68  385 838  C 385 836.32  386.32 835  388 835  C 389.68 835  391 836.32  391 838  C 391 839.68  389.68 841  388 841  " fill-rule="nonzero" fill="#797979" stroke="none" />
</svg>