<?xml version="1.0" encoding="utf-8"?>
<svg version="1.1" xmlns:xlink="http://www.w3.org/1999/xlink" width="12px" height="12px" viewBox="124 832  12 12" xmlns="http://www.w3.org/2000/svg">
  <path d="M 130 832  C 133.36 832  136 834.64  136 838  C 136 841.36  133.36 844  130 844  C 126.64 844  124 841.36  124 838  C 124 834.64  126.64 832  130 832  Z " fill-rule="nonzero" fill="#ffffff" stroke="none" />
  <path d="M 130 832.5  C 133.08 832.5  135.5 834.92  135.5 838  C 135.5 841.08  133.08 843.5  130 843.5  C 126.92 843.5  124.5 841.08  124.5 838  C 124.5 834.92  126.92 832.5  130 832.5  Z " stroke-width="1" stroke="#797979" fill="none" />
  <path d="M 130 841  C 128.32 841  127 839.68  127 838  C 127 836.32  128.32 835  130 835  C 131.68 835  133 836.32  133 838  C 133 839.68  131.68 841  130 841  " fill-rule="nonzero" fill="#797979" stroke="none" />
</svg>