<?xml version="1.0" encoding="utf-8"?>
<svg version="1.1" xmlns:xlink="http://www.w3.org/1999/xlink" width="12px" height="12px" viewBox="295 832  12 12" xmlns="http://www.w3.org/2000/svg">
  <path d="M 301 832  C 304.36 832  307 834.64  307 838  C 307 841.36  304.36 844  301 844  C 297.64 844  295 841.36  295 838  C 295 834.64  297.64 832  301 832  Z " fill-rule="nonzero" fill="#ffffff" stroke="none" />
  <path d="M 301 832.5  C 304.08 832.5  306.5 834.92  306.5 838  C 306.5 841.08  304.08 843.5  301 843.5  C 297.92 843.5  295.5 841.08  295.5 838  C 295.5 834.92  297.92 832.5  301 832.5  Z " stroke-width="1" stroke="#797979" fill="none" />
  <path d="M 301 841  C 299.32 841  298 839.68  298 838  C 298 836.32  299.32 835  301 835  C 302.68 835  304 836.32  304 838  C 304 839.68  302.68 841  301 841  " fill-rule="nonzero" fill="#797979" stroke="none" />
</svg>