<?xml version="1.0" encoding="utf-8"?>
<svg version="1.1" xmlns:xlink="http://www.w3.org/1999/xlink" width="12px" height="12px" viewBox="468 832  12 12" xmlns="http://www.w3.org/2000/svg">
  <path d="M 474 832  C 477.36 832  480 834.64  480 838  C 480 841.36  477.36 844  474 844  C 470.64 844  468 841.36  468 838  C 468 834.64  470.64 832  474 832  Z " fill-rule="nonzero" fill="#ffffff" stroke="none" />
  <path d="M 474 832.5  C 477.08 832.5  479.5 834.92  479.5 838  C 479.5 841.08  477.08 843.5  474 843.5  C 470.92 843.5  468.5 841.08  468.5 838  C 468.5 834.92  470.92 832.5  474 832.5  Z " stroke-width="1" stroke="#797979" fill="none" />
  <path d="M 474 841  C 472.32 841  471 839.68  471 838  C 471 836.32  472.32 835  474 835  C 475.68 835  477 836.32  477 838  C 477 839.68  475.68 841  474 841  " fill-rule="nonzero" fill="#797979" stroke="none" />
</svg>