<?xml version="1.0" encoding="utf-8"?>
<svg version="1.1" xmlns:xlink="http://www.w3.org/1999/xlink" width="12px" height="12px" viewBox="548 832  12 12" xmlns="http://www.w3.org/2000/svg">
  <path d="M 554 832  C 557.36 832  560 834.64  560 838  C 560 841.36  557.36 844  554 844  C 550.64 844  548 841.36  548 838  C 548 834.64  550.64 832  554 832  Z " fill-rule="nonzero" fill="#ffffff" stroke="none" />
  <path d="M 554 832.5  C 557.08 832.5  559.5 834.92  559.5 838  C 559.5 841.08  557.08 843.5  554 843.5  C 550.92 843.5  548.5 841.08  548.5 838  C 548.5 834.92  550.92 832.5  554 832.5  Z " stroke-width="1" stroke="#797979" fill="none" />
  <path d="M 554 841  C 552.32 841  551 839.68  551 838  C 551 836.32  552.32 835  554 835  C 555.68 835  557 836.32  557 838  C 557 839.68  555.68 841  554 841  " fill-rule="nonzero" fill="#797979" stroke="none" />
</svg>