<?xml version="1.0" encoding="utf-8"?>
<svg version="1.1" xmlns:xlink="http://www.w3.org/1999/xlink" width="12px" height="12px" viewBox="296 152  12 12" xmlns="http://www.w3.org/2000/svg">
  <path d="M 302 152  C 305.36 152  308 154.64  308 158  C 308 161.36  305.36 164  302 164  C 298.64 164  296 161.36  296 158  C 296 154.64  298.64 152  302 152  Z " fill-rule="nonzero" fill="#ffffff" stroke="none" />
  <path d="M 302 152.5  C 305.08 152.5  307.5 154.92  307.5 158  C 307.5 161.08  305.08 163.5  302 163.5  C 298.92 163.5  296.5 161.08  296.5 158  C 296.5 154.92  298.92 152.5  302 152.5  Z " stroke-width="1" stroke="#797979" fill="none" />
  <path d="M 302 161  C 300.32 161  299 159.68  299 158  C 299 156.32  300.32 155  302 155  C 303.68 155  305 156.32  305 158  C 305 159.68  303.68 161  302 161  " fill-rule="nonzero" fill="#797979" stroke="none" />
</svg>