<?xml version="1.0" encoding="utf-8"?>
<svg version="1.1" xmlns:xlink="http://www.w3.org/1999/xlink" width="12px" height="12px" viewBox="186 152  12 12" xmlns="http://www.w3.org/2000/svg">
  <path d="M 192 152  C 195.36 152  198 154.64  198 158  C 198 161.36  195.36 164  192 164  C 188.64 164  186 161.36  186 158  C 186 154.64  188.64 152  192 152  Z " fill-rule="nonzero" fill="#ffffff" stroke="none" />
  <path d="M 192 152.5  C 195.08 152.5  197.5 154.92  197.5 158  C 197.5 161.08  195.08 163.5  192 163.5  C 188.92 163.5  186.5 161.08  186.5 158  C 186.5 154.92  188.92 152.5  192 152.5  Z " stroke-width="1" stroke="#797979" fill="none" />
  <path d="M 192 161  C 190.32 161  189 159.68  189 158  C 189 156.32  190.32 155  192 155  C 193.68 155  195 156.32  195 158  C 195 159.68  193.68 161  192 161  " fill-rule="nonzero" fill="#797979" stroke="none" />
</svg>