<?xml version="1.0" encoding="utf-8"?>
<svg version="1.1" xmlns:xlink="http://www.w3.org/1999/xlink" width="23px" height="12px" xmlns="http://www.w3.org/2000/svg">
  <g transform="matrix(1 0 0 1 -341 -105 )">
    <path d="M 22.5732421875 0.395833333333334  C 22.8577473958333 0.65972222222222  23 0.972222222222219  23 1.33333333333333  C 23 1.69444444444444  22.8577473958333 2.00694444444444  22.5732421875 2.27083333333333  L 12.5107421875 11.6041666666667  C 12.2262369791667 11.8680555555556  11.8893229166667 12  11.5 12  C 11.1106770833333 12  10.7737630208333 11.8680555555556  10.4892578125 11.6041666666667  L 0.4267578125 2.27083333333333  C 0.142252604166667 2.00694444444444  0 1.69444444444444  0 1.33333333333333  C 0 0.972222222222219  0.142252604166667 0.65972222222222  0.4267578125 0.395833333333334  C 0.711263020833333 0.131944444444443  1.04817708333333 0  1.4375 0  L 21.5625 0  C 21.9518229166667 0  22.2887369791667 0.131944444444443  22.5732421875 0.395833333333334  Z " fill-rule="nonzero" fill="#333333" stroke="none" transform="matrix(1 0 0 1 341 105 )" />
  </g>
</svg>