<?xml version="1.0" encoding="utf-8"?>
<svg version="1.1" xmlns:xlink="http://www.w3.org/1999/xlink" width="23px" height="12px" xmlns="http://www.w3.org/2000/svg">
  <g transform="matrix(1 0 0 1 -341 -105 )">
    <path d="M 22.5732421875 9.72916666666667  C 22.8577473958333 9.99305555555555  23 10.3055555555556  23 10.6666666666667  C 23 11.0277777777778  22.8577473958333 11.3402777777778  22.5732421875 11.6041666666667  C 22.2887369791667 11.8680555555556  21.9518229166667 12  21.5625 12  L 1.4375 12  C 1.04817708333333 12  0.711263020833333 11.8680555555556  0.4267578125 11.6041666666667  C 0.142252604166667 11.3402777777778  0 11.0277777777778  0 10.6666666666667  C 0 10.3055555555556  0.142252604166667 9.99305555555555  0.4267578125 9.72916666666667  L 10.4892578125 0.395833333333334  C 10.7737630208333 0.131944444444443  11.1106770833333 0  11.5 0  C 11.8893229166667 0  12.2262369791667 0.131944444444443  12.5107421875 0.395833333333334  L 22.5732421875 9.72916666666667  Z " fill-rule="nonzero" fill="#333333" stroke="none" transform="matrix(1 0 0 1 341 105 )" />
  </g>
</svg>