<?xml version="1.0" encoding="utf-8"?>
<svg version="1.1" xmlns:xlink="http://www.w3.org/1999/xlink" width="6px" height="10px" xmlns="http://www.w3.org/2000/svg">
  <g transform="matrix(1 0 0 1 -974 -559 )">
    <path d="M 5.70034364261164 0.601202404809555  C 5.76678121420389 0.668002672010743  5.79999999999984 0.744822979291939  5.79999999999984 0.831663326653256  C 5.79999999999984 0.918503674014573  5.76678121420389 0.995323981295769  5.70034364261164 1.06212424849696  L 1.78384879725081 5  L 5.70034364261164 8.93787575150304  C 5.76678121420389 9.00467601870423  5.79999999999984 9.08149632598543  5.79999999999984 9.16833667334674  C 5.79999999999984 9.25517702070806  5.76678121420389 9.33199732798926  5.70034364261164 9.39879759519044  L 5.20206185567008 9.89979959919856  C 5.13562428407784 9.96659986639952  5.05922107674678 10  4.9728522336768 10  C 4.88648339060705 10  4.81008018327589 9.96659986639952  4.74364261168375 9.89979959919856  L 0.0996563573881986 5.2304609218437  C 0.0332187857961799 5.16366065464251  0 5.08684034736132  0 5  C 0 4.91315965263868  0.0332187857961799 4.83633934535749  0.0996563573881986 4.7695390781563  L 4.74364261168375 0.100200400801441  C 4.81008018327589 0.0334001336004803  4.88648339060705 0  4.9728522336768 0  C 5.05922107674678 0  5.13562428407784 0.0334001336004803  5.20206185567008 0.100200400801441  L 5.70034364261164 0.601202404809555  Z " fill-rule="nonzero" fill="#c9c9c9" stroke="none" transform="matrix(1 0 0 1 974 559 )" />
  </g>
</svg>