<?xml version="1.0" encoding="utf-8"?>
<svg version="1.1" xmlns:xlink="http://www.w3.org/1999/xlink" width="6px" height="10px" xmlns="http://www.w3.org/2000/svg">
  <g transform="matrix(1 0 0 1 -1259 -559 )">
    <path d="M 5.70034364261164 4.7695390781563  C 5.766781214204 4.83633934535737  5.79999999999995 4.91315965263857  5.79999999999995 5  C 5.79999999999995 5.08684034736143  5.766781214204 5.16366065464263  5.70034364261164 5.2304609218437  L 1.05635738831597 9.89979959919845  C 0.989919816724068 9.96659986639952  0.9135166093929 10  0.827147766322923 10  C 0.740778923253174 10  0.664375715922233 9.96659986639952  0.597938144329873 9.89979959919845  L 0.0996563573883122 9.39879759519033  C 0.0332187857961799 9.33199732798926  0 9.25517702070806  0 9.16833667334674  C 0 9.08149632598531  0.0332187857961799 9.00467601870412  0.0996563573883122 8.93787575150304  L 4.01615120274914 5  L 0.0996563573883122 1.06212424849696  C 0.0332187857961799 0.995323981295883  0 0.918503674014687  0 0.831663326653256  C 0 0.744822979291939  0.0332187857961799 0.668002672010743  0.0996563573883122 0.601202404809669  L 0.597938144329873 0.100200400801555  C 0.664375715922233 0.0334001336004803  0.740778923253174 0  0.827147766322923 0  C 0.9135166093929 0  0.989919816724068 0.0334001336004803  1.05635738831597 0.100200400801555  L 5.70034364261164 4.7695390781563  Z " fill-rule="nonzero" fill="#bcbcbc" stroke="none" transform="matrix(1 0 0 1 1259 559 )" />
  </g>
</svg>