<?xml version="1.0" encoding="utf-8"?>
<svg version="1.1" xmlns:xlink="http://www.w3.org/1999/xlink" width="17px" height="17px" xmlns="http://www.w3.org/2000/svg">
  <g transform="matrix(1 0 0 1 -1201 -281 )">
    <path d="M 5.36510639880953 14.9431328125  L 5.39749367559523 14.9431328125  C 5.66867782738098 14.9431328125  5.88724925595238 14.7245613839286  5.88724925595238 14.4533772321429  L 5.88724925595238 6.36826450892852  C 5.88724925595238 6.09708035714289  5.66867782738098 5.87850892857148  5.39749367559523 5.87850892857148  L 5.36510639880953 5.87850892857148  C 5.09392224702378 5.87850892857148  4.87535081845238 6.09708035714289  4.87535081845238 6.36826450892852  L 4.87535081845238 14.4533772321429  C 4.87535081845238 14.7245613839286  5.09392224702378 14.9431328125  5.36510639880953 14.9431328125  Z M 8.06488095238092 14.9431328125  L 8.09726822916662 14.9431328125  C 8.36845238095236 14.9431328125  8.58702380952377 14.7245613839286  8.58702380952377 14.4533772321429  L 8.58702380952377 6.36826450892852  C 8.58702380952377 6.09708035714289  8.36845238095236 5.87850892857148  8.09726822916662 5.87850892857148  L 8.06488095238092 5.87850892857148  C 7.79369680059517 5.87850892857148  7.57512537202376 6.09708035714289  7.57512537202376 6.36826450892852  L 7.57512537202376 14.4533772321429  C 7.57512537202376 14.7245613839286  7.79369680059517 14.9431328125  8.06488095238092 14.9431328125  Z M 10.6715349702381 14.9431328125  L 10.7039222470238 14.9431328125  C 10.9751063988095 14.9431328125  11.193677827381 14.7245613839286  11.193677827381 14.4533772321429  L 11.193677827381 6.36826450892852  C 11.193677827381 6.09708035714289  10.9751063988095 5.87850892857148  10.7039222470238 5.87850892857148  L 10.6715349702381 5.87850892857148  C 10.4003508184524 5.87850892857148  10.1817793898809 6.09708035714289  10.1817793898809 6.36826450892852  L 10.1817793898809 14.4533772321429  C 10.1817793898809 14.7245613839286  10.4003508184524 14.9431328125  10.6715349702381 14.9431328125  Z M 16.1722492559524 2.56348995535711  C 16.1722492559524 2.34087723214282  15.9901063988095 2.15873437499999  15.7674936755952 2.15873437499999  L 11.6409523809524 2.15873437499999  L 11.6409523809524 1.47469308035716  C 11.6409523809524 0.693508928571418  11.0054825148809 0.0580200892857192  10.224279389881 0.0580200892857192  L 5.96617782738099 0.0580200892857192  C 5.18499367559525 0.0580200892857192  4.54950483630955 0.693489955357109  4.54950483630955 1.47469308035716  L 4.54950483630955 2.15873437499999  L 0.422963541666604 2.15873437499999  C 0.200350818452421 2.15873437499999  0.0182079613094857 2.34087723214282  0.0182079613094857 2.56348995535711  C 0.0182079613094857 2.78610267857141  0.200350818452421 2.96824553571435  0.422963541666604 3  L 15.7674936755952 3  C 15.9901063988095 2.96824553571435  16.1722492559524 2.78610267857141  16.1722492559524 2.56348995535711  Z M 10.8334334077381 2.15873437499999  L 10.8314222470239 2.15873437499999  L 5.3590349702381 2.15873437499999  L 5.3590349702381 1.47469308035716  C 5.3590349702381 1.14076450892856  5.63224925595239 0.867550223214266  5.96617782738099 0.867550223214266  L 10.2262905505952 0.867550223214266  C 10.5602191220238 0.867550223214266  10.8334334077381 1.14076450892856  10.8334334077381 1.47469308035716  L 10.8334334077381 2.15873437499999  Z M 13.7274936755952 4.58730580357144  C 13.504880952381 4.58730580357144  13.322738095238 4.76944866071426  13 4.99206138392856  L 13 15.7486026785714  C 13.322738095238 15.9165725446428  13.187136532738 16.0521741071428  13.0191666666666 16.0521741071428  L 3.17130952380955 16.0521741071428  C 3.00333965773814 16.0521741071428  2.86773809523811 15.9165725446428  3 15.7486026785714  L 3 4.99206138392856  C 2.86773809523811 4.76944866071426  2.68559523809517 4.58730580357144  2.46298251488099 4.58730580357144  C 2.24036979166669 4.58730580357144  2.05822693452387 4.76944866071426  2 4.99206138392856  L 2 15.8498058035714  C 2.05822693452387 16.4083772321428  2.51155394345233 16.8617042410715  3.07012537202377 16.8617042410715  L 13.1203697916666 16.8617042410715  C 13.678941220238 16.8617042410715  14.1322682291666 16.4083772321428  14 15.8498058035714  L 14 4.99206138392856  C 14.1322682291666 4.76944866071426  13.9521555059523 4.58730580357144  13.7275126488095 4.58730580357144  Z " fill-rule="nonzero" fill="#000000" stroke="none" transform="matrix(1 0 0 1 1201 281 )" />
  </g>
</svg>