<?xml version="1.0" encoding="utf-8"?>
<svg version="1.1" xmlns:xlink="http://www.w3.org/1999/xlink" width="180px" height="180px" xmlns="http://www.w3.org/2000/svg">
  <g transform="matrix(1 0 0 1 -70 -100 )">
    <path d="M 160 100  C 210.4 100  250 139.6  250 190  C 250 240.4  210.4 280  160 280  C 109.6 280  70 240.4  70 190  C 70 139.6  109.6 100  160 100  Z " fill-rule="nonzero" fill="#ffffff" stroke="none" />
    <path d="M 160 100.5  C 210.12 100.5  249.5 139.88  249.5 190  C 249.5 240.12  210.12 279.5  160 279.5  C 109.88 279.5  70.5 240.12  70.5 190  C 70.5 139.88  109.88 100.5  160 100.5  Z " stroke-width="1" stroke="#797979" fill="none" />
  </g>
</svg>