<?xml version="1.0" encoding="utf-8"?>
<svg version="1.1" xmlns:xlink="http://www.w3.org/1999/xlink" width="131px" height="114px" xmlns="http://www.w3.org/2000/svg">
  <g transform="matrix(1 0 0 1 -1591 -139 )">
    <path d="M 1591 139  L 1722 139  L 1722 253  L 1591 253  L 1591 139  " fill-rule="nonzero" fill="#cccccc" stroke="none" />
    <path d="M 1599 147  L 1714 147  L 1714 245  L 1599 245  L 1599 147  " fill-rule="nonzero" fill="#ffffff" stroke="none" />
    <path d="M 1667.67 173.2  C 1662.882 173.2  1659.12 169.438  1659.12 164.65  C 1659.12 159.862  1662.882 156.1  1667.67 156.1  C 1672.458 156.1  1676.22 159.862  1676.22 164.65  C 1676.22 169.438  1672.458 173.2  1667.67 173.2  " fill-rule="nonzero" fill="#cccccc" stroke="none" />
    <path d="M 1602 242  L 1602 191.4  L 1629.25 168.4  L 1667.4 193.963358778626  L 1689.2 182.2  L 1711 193.963358778626  L 1711 242  L 1602 242  " fill-rule="nonzero" fill="#169bd5" stroke="none" />
  </g>
</svg>