<?xml version="1.0" encoding="utf-8"?>
<svg version="1.1" xmlns:xlink="http://www.w3.org/1999/xlink" width="12px" height="12px" viewBox="454 802  12 12" xmlns="http://www.w3.org/2000/svg">
  <path d="M 460 802  C 463.36 802  466 804.64  466 808  C 466 811.36  463.36 814  460 814  C 456.64 814  454 811.36  454 808  C 454 804.64  456.64 802  460 802  Z " fill-rule="nonzero" fill="#ffffff" stroke="none" />
  <path d="M 460 802.5  C 463.08 802.5  465.5 804.92  465.5 808  C 465.5 811.08  463.08 813.5  460 813.5  C 456.92 813.5  454.5 811.08  454.5 808  C 454.5 804.92  456.92 802.5  460 802.5  Z " stroke-width="1" stroke="#797979" fill="none" />
  <path d="M 460 811  C 458.32 811  457 809.68  457 808  C 457 806.32  458.32 805  460 805  C 461.68 805  463 806.32  463 808  C 463 809.68  461.68 811  460 811  " fill-rule="nonzero" fill="#797979" stroke="none" />
</svg>