<?xml version="1.0" encoding="utf-8"?>
<svg version="1.1" xmlns:xlink="http://www.w3.org/1999/xlink" width="12px" height="12px" viewBox="354 802  12 12" xmlns="http://www.w3.org/2000/svg">
  <path d="M 360 802  C 363.36 802  366 804.64  366 808  C 366 811.36  363.36 814  360 814  C 356.64 814  354 811.36  354 808  C 354 804.64  356.64 802  360 802  Z " fill-rule="nonzero" fill="#ffffff" stroke="none" />
  <path d="M 360 802.5  C 363.08 802.5  365.5 804.92  365.5 808  C 365.5 811.08  363.08 813.5  360 813.5  C 356.92 813.5  354.5 811.08  354.5 808  C 354.5 804.92  356.92 802.5  360 802.5  Z " stroke-width="1" stroke="#797979" fill="none" />
  <path d="M 360 811  C 358.32 811  357 809.68  357 808  C 357 806.32  358.32 805  360 805  C 361.68 805  363 806.32  363 808  C 363 809.68  361.68 811  360 811  " fill-rule="nonzero" fill="#797979" stroke="none" />
</svg>