<?xml version="1.0" encoding="utf-8"?>
<svg version="1.1" xmlns:xlink="http://www.w3.org/1999/xlink" width="23px" height="22px" xmlns="http://www.w3.org/2000/svg">
  <g transform="matrix(1 0 0 1 -24 -151 )">
    <path d="M 24 151  L 47 151  L 47 173  L 24 173  L 24 151  " fill-rule="nonzero" fill="#cccccc" stroke="none" />
    <path d="M 26 153  L 45 153  L 45 171  L 26 171  L 26 153  " fill-rule="nonzero" fill="#ffffff" stroke="none" />
    <path d="M 37.61 157.6  C 36.686 157.6  35.96 156.874  35.96 155.95  C 35.96 155.026  36.686 154.3  37.61 154.3  C 38.534 154.3  39.26 155.026  39.26 155.95  C 39.26 156.874  38.534 157.6  37.61 157.6  " fill-rule="nonzero" fill="#cccccc" stroke="none" />
    <path d="M 27 171  L 27 161.65  L 31.5 157.4  L 37.8 161.24347826087  L 41.4 159.95  L 45 161.24347826087  L 45 171  L 27 171  " fill-rule="nonzero" fill="#169bd5" stroke="none" />
  </g>
</svg>