<?xml version="1.0" encoding="utf-8"?>
<svg version="1.1" xmlns:xlink="http://www.w3.org/1999/xlink" width="60px" height="60px" xmlns="http://www.w3.org/2000/svg">
  <g transform="matrix(1 0 0 1 -758 -541 )">
    <path d="M 758 541  L 818 541  L 818 601  L 758 601  L 758 541  " fill-rule="nonzero" fill="#cccccc" stroke="none" />
    <path d="M 762 545  L 814 545  L 814 597  L 762 597  L 762 545  " fill-rule="nonzero" fill="#ffffff" stroke="none" />
    <path d="M 793.7 559  C 791.18 559  789.2 557.02  789.2 554.5  C 789.2 551.98  791.18 550  793.7 550  C 796.22 550  798.2 551.98  798.2 554.5  C 798.2 557.02  796.22 559  793.7 559  " fill-rule="nonzero" fill="#cccccc" stroke="none" />
    <path d="M 764 596  L 764 569.05  L 776.25 556.8  L 793.4 566.6  L 803.2 564.15  L 813 566.6  L 813 596  L 764 596  " fill-rule="nonzero" fill="#169bd5" stroke="none" />
  </g>
</svg>